<svg id="グループ_3" data-name="グループ 3" xmlns="http://www.w3.org/2000/svg" xmlns:xlink="http://www.w3.org/1999/xlink" width="640" height="640" viewBox="0 0 640 640">
  <defs>
    <style>
      .cls-1 {
        filter: url(#filter);
      }

      .cls-2 {
        fill: #fff;
      }

      .cls-2, .cls-3, .cls-4, .cls-5 {
        fill-rule: evenodd;
      }

      .cls-3, .cls-4, .cls-5 {
        fill: none;
        stroke: #fff;
      }

      .cls-3 {
        stroke-width: 4px;
      }

      .cls-4 {
        stroke-width: 2px;
      }

      .cls-5 {
        stroke-width: 1px;
      }
    </style>
    <filter id="filter" filterUnits="userSpaceOnUse">
      <feFlood result="flood" flood-color="#ddcf8e"/>
      <feComposite result="composite" operator="in" in2="SourceGraphic"/>
      <feBlend result="blend" in2="SourceGraphic"/>
    </filter>
  </defs>
  <g id="グループ_1" data-name="グループ 1" class="cls-1">
    <g id="text_shape">
      <path id="Dran_のコピー" data-name="Dran のコピー" class="cls-2" d="M37.7,107.125c0,5.25-.1,5.85-3,6.25l-1.15.15a0.971,0.971,0,0,0,.1,1.25c2.35-.1,4.15-0.15,6.25-0.15,1.75,0,4.95.4,8.151,0.4a24.151,24.151,0,0,0,11.2-2.4A16.4,16.4,0,0,0,68,97.724c0-6.6-3.4-12.3-10.151-14.751a31.349,31.349,0,0,0-11-1.5c-4.25,0-8.3.15-12.551,0.4a0.748,0.748,0,0,0-.05,1.25l1.1,0.15c2.1,0.3,2.35,1.35,2.35,4.85v19Zm4.1-19.6c0-2.25.1-3.5,0.5-3.8s2-.7,4.95-0.7c13.1,0,15.751,9.3,15.751,14.8,0,9.3-4.35,15.651-14.051,15.651-3.15,0-5.05-.5-6.15-2.05-0.85-1.2-1-2.8-1-5.451V87.523Zm32.23,21.5c0,3.6-.05,4.05-1.9,4.35l-0.95.15a0.875,0.875,0,0,0,.1,1.25c1.3-.1,2.8-0.15,4.6-0.15,1.75,0,3.2.05,5.55,0.15a0.875,0.875,0,0,0,.1-1.25l-1.8-.15c-1.9-.15-2-0.75-2-4.35v-6.8a7.6,7.6,0,0,1,.65-3.85,2.219,2.219,0,0,1,1.8-1,4.1,4.1,0,0,1,2.2.8,1.921,1.921,0,0,0,1.1.35,2.218,2.218,0,0,0,2.15-2.3,2.071,2.071,0,0,0-2.25-2c-1.85,0-3.75,1.55-5.5,3a0.478,0.478,0,0,1-.15-0.45v-2.9a0.387,0.387,0,0,0-.4-0.35,38.731,38.731,0,0,1-5.05,2.45,0.684,0.684,0,0,0-.05.9l0.45,0.3c1.35,0.9,1.35,1.15,1.35,3.1v8.751Zm17.26-2.6c-3.2,1.151-4.15,2.3-4.15,4.251a4.678,4.678,0,0,0,1.55,3.5,5.175,5.175,0,0,0,3.5,1.15,7.4,7.4,0,0,0,3.6-1.25,7.677,7.677,0,0,1,1.95-1,1.337,1.337,0,0,1,.8.7,3.991,3.991,0,0,0,3.251,1.55,5.246,5.246,0,0,0,4.2-2.2,0.576,0.576,0,0,0-.35-0.65,2.106,2.106,0,0,0-.65.35,2.873,2.873,0,0,1-1.25.3c-1.95,0-2.4-2.05-2.3-4.35l0.3-8.7c0.15-3.75-1.6-5.85-5.2-5.85-3.65,0-9.3,3.55-9.3,6.15a0.633,0.633,0,0,0,.7.7,5.381,5.381,0,0,0,2.85-.95,2.231,2.231,0,0,0,.5-1.7c0.1-1.55,1.8-2.25,3.2-2.25,3.1,0,3.7,2.5,3.65,4.35l-0.05,2.3a1.215,1.215,0,0,1-.85,1.45Zm-0.3,3.651c0-1.95,1.45-2.7,4.4-3.7a9.438,9.438,0,0,1,2.05-.5c0.3,0,.5.1,0.5,0.651l-0.1,2.95a3.148,3.148,0,0,1-.65,2.35,5.655,5.655,0,0,1-3.05,1.25A3.014,3.014,0,0,1,90.988,110.075Zm20.115-1.05c0,3.6-.05,4.1-1.9,4.35l-1.05.15a0.875,0.875,0,0,0,.1,1.25c1.4-.1,2.9-0.15,4.7-0.15,1.75,0,3.2.05,4.55,0.15a0.875,0.875,0,0,0,.1-1.25l-0.9-.15c-1.8-.3-1.9-0.75-1.9-4.35v-7.651a4.212,4.212,0,0,1,.75-3,5.452,5.452,0,0,1,4.25-1.75c3.4,0,4.7,2.1,4.7,4.95v7.451c0,3.6-.05,4.05-1.9,4.35l-0.95.15a0.875,0.875,0,0,0,.1,1.25c1.35-.1,2.85-0.15,4.65-0.15,1.75,0,3.2.05,4.7,0.15a0.875,0.875,0,0,0,.1-1.25l-1.1-.15c-1.8-.25-1.9-0.75-1.9-4.35v-8.6c0-3.35-1.7-6.2-5.85-6.2-2.551,0-4.9,1.25-7,2.55a0.525,0.525,0,0,1-.55-0.55c0-.45,0-1.2.1-2.35a0.584,0.584,0,0,0-.55-0.35,27.246,27.246,0,0,1-5,2.45,0.684,0.684,0,0,0-.05.9l0.45,0.3c1.35,0.9,1.35,1.15,1.35,3.1v8.751Z"/>
      <path id="Golgon_のコピー" data-name="Golgon のコピー" class="cls-2" d="M528.952,106.725c0-2.551.05-3.951,2.15-4.2l0.8-.1a0.873,0.873,0,0,0-.05-1.25c-1.65.1-3.35,0.15-5.3,0.15-2.95,0-5.7-.05-7.151-0.15a0.835,0.835,0,0,0,0,1.25l2.2,0.25c3.1,0.35,3.25.65,3.25,4.851v2a5.57,5.57,0,0,1-.5,2.85c-0.55.85-2.4,1.5-5.5,1.5-10.05,0-15-7.551-15-17.151,0-7.5,4.251-14.4,13.951-14.4,5.1,0,8.851,1.7,10.251,7.1a1,1,0,0,0,1.35-.15,56.261,56.261,0,0,1-.75-7.251,13.2,13.2,0,0,1-3.1-.45,29.882,29.882,0,0,0-6.351-.75c-7.55,0-12.5,2.35-15.851,5.85a17.16,17.16,0,0,0-4.5,11.851,15.742,15.742,0,0,0,4.6,11.351c3.851,3.9,9.3,5.55,15.251,5.55a39.084,39.084,0,0,0,8.951-1.3,11.2,11.2,0,0,1,2.45-.45,0.412,0.412,0,0,0,.05-0.6c-0.9-.35-1.2-1.55-1.2-3.55v-2.8Zm16.979-12.5a10.508,10.508,0,0,0-10.651,10.8,9.885,9.885,0,0,0,10.251,10.3c6.25,0,10.55-4.5,10.55-10.751A9.989,9.989,0,0,0,545.931,94.224Zm5.85,11.15c0,3.851-1.35,8.451-5.75,8.451s-6.451-4.9-6.451-9.451c0-5.5,2.451-8.65,5.751-8.65C550.081,95.724,551.781,101.124,551.781,105.374Zm12.8-20c0-2.2.1-4.7,0.15-6.2a0.55,0.55,0,0,0-.5-0.3,35.516,35.516,0,0,1-5.4,2.1,0.761,0.761,0,0,0,0,1l0.5,0.3c1.5,0.9,1.55,1.2,1.55,4.15v22.6c0,3.6-.05,4.1-1.9,4.35l-1.15.15a0.875,0.875,0,0,0,.1,1.25c1.5-.1,3-0.15,4.8-0.15,1.751,0,3.2.05,4.851,0.15a0.875,0.875,0,0,0,.1-1.25l-1.2-.15c-1.8-.25-1.9-0.75-1.9-4.35V85.373Zm22.055,10.651a5.982,5.982,0,0,1-3.05-.8,12.479,12.479,0,0,0-4.8-1c-4.451,0-8.151,3.25-8.151,7.55a6.789,6.789,0,0,0,3.75,6.051,1.954,1.954,0,0,1-.5.95,15.539,15.539,0,0,1-2.65,2.3,1.3,1.3,0,0,0-.75.85c0,1.75,1.7,3.45,3.65,3.95,0.45,0.3.05,0.75-.4,1.2-1.15,1.15-2.55,2.45-3.4,3.35a2.815,2.815,0,0,0-.55,1.85c0,2.5,2.15,5.8,8.3,5.8,6.5,0,12.45-4,12.45-9.451,0-5-4.2-5.5-7-5.5-2.2,0-4.25.15-5.95,0.15-2.351,0-3.5-.95-3.5-2.1,0-1.45,1.6-2.4,2.2-2.75,0.6,0.05,1.3.15,2.2,0.15,6.35,0,8.4-4.5,8.4-7.951a21.745,21.745,0,0,0-.1-2.55h3.6c0.75-.1.85-1.8,0.3-2.05h-4.05Zm-4.7,20.2c3.6,0,5.7,1.3,5.7,4.35,0,2.851-2.95,5.351-7.4,5.351-4.551,0-6.7-2.25-6.7-4.951a5.121,5.121,0,0,1,2.4-4.2c0.7-.45,2.7-0.55,4.3-0.55h1.7Zm-2.7-9.1c-2.4,0-4.551-2.3-4.551-5.851,0-3.4,1.8-5.6,4.2-5.6,3.05,0,4.45,2.85,4.45,6.25C583.336,104.974,581.936,107.125,579.236,107.125Zm23.325-12.9a10.508,10.508,0,0,0-10.651,10.8,9.885,9.885,0,0,0,10.251,10.3c6.25,0,10.55-4.5,10.55-10.751A9.989,9.989,0,0,0,602.561,94.224Zm5.85,11.15c0,3.851-1.35,8.451-5.75,8.451s-6.451-4.9-6.451-9.451c0-5.5,2.451-8.65,5.751-8.65C606.711,95.724,608.411,101.124,608.411,105.374Zm9.439,3.651c0,3.6-.05,4.1-1.9,4.35l-1.05.15a0.875,0.875,0,0,0,.1,1.25c1.4-.1,2.9-0.15,4.7-0.15,1.751,0,3.2.05,4.551,0.15a0.875,0.875,0,0,0,.1-1.25l-0.9-.15c-1.8-.3-1.9-0.75-1.9-4.35v-7.651a4.212,4.212,0,0,1,.75-3,5.452,5.452,0,0,1,4.25-1.75c3.4,0,4.7,2.1,4.7,4.95v7.451c0,3.6-.05,4.05-1.9,4.35l-0.95.15a0.875,0.875,0,0,0,.1,1.25c1.35-.1,2.85-0.15,4.65-0.15,1.75,0,3.2.05,4.7,0.15a0.875,0.875,0,0,0,.1-1.25l-1.1-.15c-1.8-.25-1.9-0.75-1.9-4.35v-8.6c0-3.35-1.7-6.2-5.85-6.2-2.55,0-4.9,1.25-7,2.55a0.525,0.525,0,0,1-.55-0.55c0-.45,0-1.2.1-2.35a0.584,0.584,0,0,0-.55-0.35,27.286,27.286,0,0,1-5,2.45,0.684,0.684,0,0,0-.05.9l0.45,0.3c1.35,0.9,1.35,1.15,1.35,3.1v8.751Z"/>
      <path id="Golden_Dragon_のコピー" data-name="Golden Dragon のコピー" class="cls-2" d="M524.944,61.78c0-.918.018-1.422,0.774-1.513l0.288-.036a0.314,0.314,0,0,0-.018-0.45c-0.594.036-1.206,0.054-1.908,0.054-1.062,0-2.053-.018-2.575-0.054a0.3,0.3,0,0,0,0,.45l0.792,0.09c1.117,0.126,1.171.234,1.171,1.746v0.72a2.007,2.007,0,0,1-.18,1.026,2.511,2.511,0,0,1-1.981.54c-3.619,0-5.4-2.719-5.4-6.176,0-2.7,1.531-5.186,5.024-5.186,1.836,0,3.187.612,3.691,2.557a0.359,0.359,0,0,0,.486-0.054,20.262,20.262,0,0,1-.27-2.611,4.746,4.746,0,0,1-1.116-.162,10.77,10.77,0,0,0-2.287-.27,7.456,7.456,0,0,0-5.708,2.107,6.18,6.18,0,0,0-1.62,4.267,5.669,5.669,0,0,0,1.656,4.087,7.5,7.5,0,0,0,5.492,2,14.074,14.074,0,0,0,3.223-.468,4.033,4.033,0,0,1,.882-0.162,0.148,0.148,0,0,0,.018-0.216,1.246,1.246,0,0,1-.432-1.278V61.78Zm6.273-4.5a3.783,3.783,0,0,0-3.835,3.889,3.559,3.559,0,0,0,3.691,3.709,3.678,3.678,0,0,0,3.8-3.871A3.6,3.6,0,0,0,531.217,57.279Zm2.106,4.015c0,1.386-.486,3.043-2.07,3.043s-2.323-1.764-2.323-3.4c0-1.981.882-3.115,2.071-3.115C532.711,57.819,533.323,59.764,533.323,61.294Zm4.78-7.2c0-.792.036-1.693,0.054-2.233a0.2,0.2,0,0,0-.18-0.108,12.742,12.742,0,0,1-1.945.756,0.274,0.274,0,0,0,0,.36l0.181,0.108c0.54,0.324.558,0.432,0.558,1.495v8.138c0,1.3-.018,1.476-0.685,1.566l-0.414.054a0.315,0.315,0,0,0,.036.45c0.541-.036,1.081-0.054,1.729-0.054,0.63,0,1.152.018,1.746,0.054a0.315,0.315,0,0,0,.036-0.45l-0.432-.054c-0.648-.09-0.684-0.27-0.684-1.566V54.092Zm8.868,0c0-.792.036-1.693,0.054-2.233a0.2,0.2,0,0,0-.18-0.108,12.775,12.775,0,0,1-1.944.756,0.274,0.274,0,0,0,0,.36l0.18,0.108c0.54,0.324.558,0.432,0.558,1.495v2.719c0,0.144-.018.252-0.108,0.252a3.69,3.69,0,0,0-1.207-.162,4.087,4.087,0,0,0-4.357,4.141,3.309,3.309,0,0,0,3.331,3.457,3.75,3.75,0,0,0,2.269-.828h0.072a2.006,2.006,0,0,1,.036.558v0.306a0.171,0.171,0,0,0,.2.144,13.523,13.523,0,0,1,2.377-.576,0.439,0.439,0,0,0,.018-0.576,2.94,2.94,0,0,1-.775.18c-0.5,0-.522-0.666-0.522-2.089v-7.9Zm-1.332,8.751a1.093,1.093,0,0,1-.126.666,2.2,2.2,0,0,1-1.387.5c-1.764,0-2.682-1.548-2.682-3.187,0-1.566.846-2.989,2.484-2.989a1.878,1.878,0,0,1,1.513.756,1.055,1.055,0,0,1,.2.7v3.547Zm8.382-2.827a1.6,1.6,0,0,0,1.063-.126,1.113,1.113,0,0,0,.072-0.468,2.36,2.36,0,0,0-2.557-2.143,3.779,3.779,0,0,0-3.619,4.069,3.824,3.824,0,0,0,.756,2.341,3.226,3.226,0,0,0,2.611,1.188,3.148,3.148,0,0,0,2.827-1.675,0.238,0.238,0,0,0-.324-0.216,1.942,1.942,0,0,1-1.657.882c-1.927,0-2.989-1.548-2.989-3.367,0-.45.018-0.486,0.486-0.486h3.331Zm-3.493-.54c-0.126,0-.126-0.054-0.126-0.09a2.114,2.114,0,0,1,2-1.566,1.186,1.186,0,0,1,1.386,1.134,0.362,0.362,0,0,1-.108.342,4.228,4.228,0,0,1-1.872.18h-1.279Zm6.572,3.133c0,1.3-.018,1.476-0.684,1.566l-0.378.054a0.315,0.315,0,0,0,.036.45c0.5-.036,1.044-0.054,1.692-0.054,0.63,0,1.152.018,1.639,0.054a0.315,0.315,0,0,0,.036-0.45l-0.324-.054c-0.649-.108-0.685-0.27-0.685-1.566V59.854a1.517,1.517,0,0,1,.27-1.08,1.965,1.965,0,0,1,1.531-.63,1.561,1.561,0,0,1,1.692,1.783v2.683c0,1.3-.018,1.458-0.684,1.566l-0.342.054a0.315,0.315,0,0,0,.036.45c0.486-.036,1.026-0.054,1.675-0.054,0.63,0,1.152.018,1.692,0.054a0.315,0.315,0,0,0,.036-0.45l-0.4-.054c-0.648-.09-0.684-0.27-0.684-1.566v-3.1a2,2,0,0,0-2.107-2.233,4.94,4.94,0,0,0-2.521.918,0.189,0.189,0,0,1-.2-0.2c0-.162,0-0.432.036-0.846a0.21,0.21,0,0,0-.2-0.126,9.8,9.8,0,0,1-1.8.882,0.246,0.246,0,0,0-.018.324l0.162,0.108a0.935,0.935,0,0,1,.486,1.116v3.151Zm14.49-.684c0,1.891-.036,2.107-1.08,2.251l-0.414.054a0.35,0.35,0,0,0,.036.45c0.846-.036,1.494-0.054,2.25-0.054,0.631,0,1.783.144,2.935,0.144a8.692,8.692,0,0,0,4.033-.864,5.9,5.9,0,0,0,3.151-5.366,5.4,5.4,0,0,0-3.655-5.312,11.285,11.285,0,0,0-3.961-.54c-1.53,0-2.989.054-4.519,0.144a0.269,0.269,0,0,0-.018.45l0.4,0.054c0.756,0.108.846,0.486,0.846,1.747v6.842Zm1.477-7.058a2.4,2.4,0,0,1,.18-1.368,4,4,0,0,1,1.782-.252c4.718,0,5.672,3.349,5.672,5.33,0,3.349-1.567,5.636-5.06,5.636-1.134,0-1.818-.18-2.214-0.738a3.337,3.337,0,0,1-.36-1.963V54.866Zm11.78,7.742c0,1.3-.018,1.458-0.684,1.566l-0.342.054a0.315,0.315,0,0,0,.036.45c0.468-.036,1.008-0.054,1.656-0.054,0.63,0,1.152.018,2,.054a0.315,0.315,0,0,0,.036-0.45l-0.648-.054c-0.685-.054-0.721-0.27-0.721-1.566V60.16a2.739,2.739,0,0,1,.234-1.386,0.8,0.8,0,0,1,.649-0.36,1.476,1.476,0,0,1,.792.288,0.691,0.691,0,0,0,.4.126A0.8,0.8,0,0,0,589.024,58a0.746,0.746,0,0,0-.81-0.72,3.643,3.643,0,0,0-1.981,1.08,0.172,0.172,0,0,1-.054-0.162V57.153a0.139,0.139,0,0,0-.144-0.126,13.932,13.932,0,0,1-1.818.882,0.246,0.246,0,0,0-.018.324l0.162,0.108a0.935,0.935,0,0,1,.486,1.116v3.151Zm6.368-.936c-1.152.414-1.494,0.828-1.494,1.53a1.685,1.685,0,0,0,.558,1.26,1.864,1.864,0,0,0,1.261.414,2.663,2.663,0,0,0,1.3-.45,2.765,2.765,0,0,1,.7-0.36,0.482,0.482,0,0,1,.288.252,1.437,1.437,0,0,0,1.171.558,1.888,1.888,0,0,0,1.512-.792,0.207,0.207,0,0,0-.126-0.234,0.758,0.758,0,0,0-.234.126,1.034,1.034,0,0,1-.45.108c-0.7,0-.864-0.738-0.828-1.566l0.108-3.133a1.746,1.746,0,0,0-1.873-2.107c-1.314,0-3.349,1.278-3.349,2.215a0.228,0.228,0,0,0,.252.252,1.936,1.936,0,0,0,1.026-.342,0.8,0.8,0,0,0,.18-0.612,1.047,1.047,0,0,1,1.153-.81,1.313,1.313,0,0,1,1.314,1.566l-0.018.828a0.437,0.437,0,0,1-.306.522Zm-0.108,1.314c0-.7.523-0.972,1.585-1.332a3.4,3.4,0,0,1,.738-0.18c0.108,0,.18.036,0.18,0.234l-0.036,1.062a1.134,1.134,0,0,1-.234.846,2.035,2.035,0,0,1-1.1.45A1.085,1.085,0,0,1,591.107,62.987Zm12.114-5.059a2.153,2.153,0,0,1-1.1-.288,4.5,4.5,0,0,0-1.729-.36A2.815,2.815,0,0,0,597.459,60a2.443,2.443,0,0,0,1.351,2.179,0.7,0.7,0,0,1-.18.342,5.6,5.6,0,0,1-.955.828,0.469,0.469,0,0,0-.27.306,1.672,1.672,0,0,0,1.315,1.422c0.162,0.108.018,0.27-.144,0.432-0.415.414-.919,0.882-1.225,1.206a1.014,1.014,0,0,0-.2.666c0,0.9.774,2.089,2.989,2.089,2.341,0,4.483-1.44,4.483-3.4,0-1.8-1.512-1.981-2.52-1.981-0.793,0-1.531.054-2.143,0.054-0.846,0-1.26-.342-1.26-0.756a1.354,1.354,0,0,1,.792-0.99c0.216,0.018.468,0.054,0.792,0.054a2.768,2.768,0,0,0,3.025-2.863,7.833,7.833,0,0,0-.036-0.918h1.3a0.482,0.482,0,0,0,.108-0.738h-1.458ZM601.528,65.2c1.3,0,2.053.468,2.053,1.566,0,1.026-1.062,1.927-2.665,1.927-1.638,0-2.412-.81-2.412-1.782a1.845,1.845,0,0,1,.864-1.513,3.978,3.978,0,0,1,1.548-.2h0.612Zm-0.972-3.277a1.873,1.873,0,0,1-1.638-2.107c0-1.224.648-2.017,1.512-2.017,1.1,0,1.6,1.026,1.6,2.251C602.033,61.15,601.528,61.924,600.556,61.924Zm8.556-4.645a3.783,3.783,0,0,0-3.835,3.889,3.559,3.559,0,0,0,3.691,3.709,3.678,3.678,0,0,0,3.8-3.871A3.6,3.6,0,0,0,609.112,57.279Zm2.106,4.015c0,1.386-.486,3.043-2.07,3.043s-2.323-1.764-2.323-3.4c0-1.981.882-3.115,2.071-3.115C610.606,57.819,611.218,59.764,611.218,61.294Zm3.57,1.314c0,1.3-.018,1.476-0.684,1.566l-0.378.054a0.315,0.315,0,0,0,.036.45c0.5-.036,1.044-0.054,1.692-0.054,0.631,0,1.153.018,1.639,0.054a0.315,0.315,0,0,0,.036-0.45l-0.324-.054c-0.648-.108-0.684-0.27-0.684-1.566V59.854a1.517,1.517,0,0,1,.27-1.08,1.963,1.963,0,0,1,1.53-.63,1.562,1.562,0,0,1,1.693,1.783v2.683c0,1.3-.018,1.458-0.685,1.566l-0.342.054a0.315,0.315,0,0,0,.036.45c0.486-.036,1.027-0.054,1.675-0.054,0.63,0,1.152.018,1.692,0.054a0.315,0.315,0,0,0,.036-0.45l-0.4-.054c-0.648-.09-0.684-0.27-0.684-1.566v-3.1a2,2,0,0,0-2.107-2.233,4.933,4.933,0,0,0-2.52.918,0.189,0.189,0,0,1-.2-0.2c0-.162,0-0.432.036-0.846a0.21,0.21,0,0,0-.2-0.126,9.8,9.8,0,0,1-1.8.882,0.246,0.246,0,0,0-.018.324l0.162,0.108a0.935,0.935,0,0,1,.486,1.116v3.151Z"/>
      <path id="Golden_Brave_のコピー" data-name="Golden Brave のコピー" class="cls-2" d="M285.35,536.78c0-.918.018-1.422,0.774-1.512l0.288-.036a0.314,0.314,0,0,0-.018-0.45c-0.594.036-1.206,0.054-1.908,0.054-1.062,0-2.053-.018-2.575-0.054a0.3,0.3,0,0,0,0,.45l0.792,0.09c1.117,0.126,1.171.234,1.171,1.746v0.72a2.007,2.007,0,0,1-.18,1.027,2.511,2.511,0,0,1-1.981.54c-3.619,0-5.4-2.719-5.4-6.176,0-2.7,1.531-5.185,5.024-5.185,1.836,0,3.187.612,3.691,2.556a0.359,0.359,0,0,0,.486-0.054,20.246,20.246,0,0,1-.27-2.611,4.7,4.7,0,0,1-1.116-.162,10.77,10.77,0,0,0-2.287-.27,7.458,7.458,0,0,0-5.708,2.107,6.179,6.179,0,0,0-1.62,4.267,5.667,5.667,0,0,0,1.656,4.087,7.5,7.5,0,0,0,5.492,2,14.079,14.079,0,0,0,3.223-.468,4.033,4.033,0,0,1,.882-0.162,0.148,0.148,0,0,0,.018-0.216,1.247,1.247,0,0,1-.432-1.279V536.78Zm6.273-4.5a3.783,3.783,0,0,0-3.835,3.889,3.559,3.559,0,0,0,3.691,3.709,3.678,3.678,0,0,0,3.8-3.871A3.6,3.6,0,0,0,291.623,532.279Zm2.106,4.015c0,1.386-.486,3.043-2.07,3.043s-2.323-1.765-2.323-3.4c0-1.981.882-3.115,2.071-3.115C293.117,532.819,293.729,534.764,293.729,536.294Zm4.78-7.2c0-.792.036-1.693,0.054-2.233a0.2,0.2,0,0,0-.18-0.108,12.739,12.739,0,0,1-1.945.756,0.274,0.274,0,0,0,0,.36l0.181,0.109c0.54,0.324.558,0.432,0.558,1.494v8.138c0,1.3-.018,1.477-0.685,1.567l-0.414.054a0.315,0.315,0,0,0,.036.45c0.541-.036,1.081-0.054,1.729-0.054,0.63,0,1.152.018,1.746,0.054a0.315,0.315,0,0,0,.036-0.45l-0.432-.054c-0.648-.09-0.684-0.27-0.684-1.567v-8.516Zm8.868,0c0-.792.036-1.693,0.054-2.233a0.2,0.2,0,0,0-.18-0.108,12.772,12.772,0,0,1-1.944.756,0.274,0.274,0,0,0,0,.36l0.18,0.109c0.54,0.324.558,0.432,0.558,1.494v2.719c0,0.144-.018.252-0.108,0.252a3.691,3.691,0,0,0-1.206-.162,4.087,4.087,0,0,0-4.358,4.141,3.308,3.308,0,0,0,3.331,3.457,3.751,3.751,0,0,0,2.269-.828h0.072a2,2,0,0,1,.036.558v0.306a0.171,0.171,0,0,0,.2.144,13.523,13.523,0,0,1,2.377-.576,0.439,0.439,0,0,0,.018-0.576,2.94,2.94,0,0,1-.775.18c-0.5,0-.522-0.666-0.522-2.089v-7.9Zm-1.332,8.75a1.094,1.094,0,0,1-.126.667,2.2,2.2,0,0,1-1.387.5c-1.764,0-2.682-1.549-2.682-3.187,0-1.567.846-2.989,2.484-2.989a1.878,1.878,0,0,1,1.513.756,1.054,1.054,0,0,1,.2.7v3.547Zm8.382-2.826a1.6,1.6,0,0,0,1.063-.126,1.115,1.115,0,0,0,.072-0.469,2.359,2.359,0,0,0-2.557-2.142,3.779,3.779,0,0,0-3.619,4.069,3.825,3.825,0,0,0,.756,2.341,3.226,3.226,0,0,0,2.611,1.188,3.148,3.148,0,0,0,2.827-1.674,0.238,0.238,0,0,0-.324-0.216,1.943,1.943,0,0,1-1.657.882c-1.927,0-2.989-1.549-2.989-3.367,0-.45.018-0.486,0.486-0.486h3.331Zm-3.493-.541c-0.126,0-.126-0.054-0.126-0.09a2.114,2.114,0,0,1,2-1.566,1.186,1.186,0,0,1,1.386,1.134,0.362,0.362,0,0,1-.108.342,4.229,4.229,0,0,1-1.872.18h-1.279Zm6.572,3.133c0,1.3-.018,1.477-0.684,1.567l-0.378.054a0.315,0.315,0,0,0,.036.45c0.5-.036,1.044-0.054,1.692-0.054,0.63,0,1.152.018,1.639,0.054a0.315,0.315,0,0,0,.036-0.45l-0.324-.054c-0.649-.108-0.685-0.27-0.685-1.567v-2.754a1.518,1.518,0,0,1,.27-1.081,1.965,1.965,0,0,1,1.531-.63,1.561,1.561,0,0,1,1.692,1.783v2.682c0,1.3-.018,1.459-0.684,1.567l-0.342.054a0.315,0.315,0,0,0,.036.45c0.486-.036,1.026-0.054,1.675-0.054,0.63,0,1.152.018,1.692,0.054a0.315,0.315,0,0,0,.036-0.45l-0.4-.054c-0.648-.09-0.684-0.27-0.684-1.567v-3.1a2,2,0,0,0-2.107-2.232,4.942,4.942,0,0,0-2.521.918,0.189,0.189,0,0,1-.2-0.2c0-.162,0-0.432.036-0.846a0.21,0.21,0,0,0-.2-0.126,9.808,9.808,0,0,1-1.8.882,0.246,0.246,0,0,0-.018.324l0.162,0.108a0.934,0.934,0,0,1,.486,1.116v3.151Zm14.49-.684c0,1.891-.036,2.089-0.99,2.251l-0.324.054a0.35,0.35,0,0,0,.036.45c0.666-.018,1.278-0.054,2.07-0.054,0.757,0,1.639.054,2.161,0.054,3.241,0,4.789-1.4,4.789-3.493a2.978,2.978,0,0,0-2.412-3.007c-0.2-.036-0.342-0.09-0.342-0.27a2.6,2.6,0,0,0,1.836-2.467,2.363,2.363,0,0,0-1.368-2.25,6.841,6.841,0,0,0-3.025-.5c-1.675,0-2.9.054-3.871,0.144a0.289,0.289,0,0,0-.018.451l0.576,0.054c0.81,0.072.882,0.414,0.882,1.746v6.842Zm1.477-2.935c0-.36.072-0.468,1.044-0.468,2.863,0,3.583,1.657,3.583,3.079,0,1.8-1.224,2.521-2.827,2.521a1.747,1.747,0,0,1-1.422-.5,3.53,3.53,0,0,1-.378-1.963v-2.665Zm0-5.167c0-.324.072-0.414,0.252-0.468a2.215,2.215,0,0,1,.828-0.108,2.378,2.378,0,0,1,2.683,2.43c0,1.693-.991,2.233-2.827,2.3-0.918.036-.936,0-0.936-0.5v-3.655Zm8.621,8.786c0,1.3-.018,1.459-0.684,1.567l-0.342.054a0.315,0.315,0,0,0,.036.45c0.468-.036,1.008-0.054,1.656-0.054,0.63,0,1.152.018,2,.054a0.315,0.315,0,0,0,.036-0.45l-0.648-.054c-0.685-.054-0.721-0.27-0.721-1.567V535.16a2.74,2.74,0,0,1,.234-1.387,0.8,0.8,0,0,1,.649-0.36,1.476,1.476,0,0,1,.792.288,0.691,0.691,0,0,0,.4.126,0.8,0.8,0,0,0,.774-0.828,0.746,0.746,0,0,0-.81-0.72,3.643,3.643,0,0,0-1.981,1.08,0.172,0.172,0,0,1-.054-0.162v-1.044a0.139,0.139,0,0,0-.144-0.126,13.941,13.941,0,0,1-1.818.882,0.246,0.246,0,0,0-.018.324l0.162,0.108a0.934,0.934,0,0,1,.486,1.116v3.151Zm6.368-.936c-1.152.414-1.494,0.828-1.494,1.531a1.684,1.684,0,0,0,.558,1.26,1.864,1.864,0,0,0,1.261.414,2.664,2.664,0,0,0,1.3-.45,2.764,2.764,0,0,1,.7-0.36,0.481,0.481,0,0,1,.288.252,1.437,1.437,0,0,0,1.171.558,1.888,1.888,0,0,0,1.512-.792,0.207,0.207,0,0,0-.126-0.234,0.758,0.758,0,0,0-.234.126,1.034,1.034,0,0,1-.45.108c-0.7,0-.864-0.738-0.828-1.567l0.108-3.133a1.746,1.746,0,0,0-1.873-2.106c-1.314,0-3.349,1.278-3.349,2.214a0.228,0.228,0,0,0,.252.253,1.93,1.93,0,0,0,1.026-.343,0.8,0.8,0,0,0,.18-0.612,1.047,1.047,0,0,1,1.153-.81,1.313,1.313,0,0,1,1.314,1.566l-0.018.829a0.437,0.437,0,0,1-.306.522Zm-0.108,1.315c0-.7.523-0.973,1.585-1.333a3.4,3.4,0,0,1,.738-0.18c0.108,0,.18.036,0.18,0.234l-0.036,1.062a1.135,1.135,0,0,1-.234.847,2.036,2.036,0,0,1-1.1.45A1.085,1.085,0,0,1,348.354,537.987Zm8.049-.018c0.27,0.666.54,1.368,0.684,1.872a0.332,0.332,0,0,0,.234.072,0.209,0.209,0,0,0,.18-0.072c0.234-.612.414-1.026,0.594-1.476,0.288-.739,1.4-3.349,1.657-3.836,0.522-1.008.684-1.476,1.314-1.566l0.27-.036a0.332,0.332,0,0,0-.036-0.45c-0.5.036-.81,0.054-1.26,0.054q-0.515,0-1.351-.054a0.33,0.33,0,0,0-.036.45l0.414,0.054c0.216,0.036.324,0.108,0.324,0.27a4.055,4.055,0,0,1-.324,1.116c-0.18.469-.792,2.035-1.026,2.647a2.2,2.2,0,0,1-.342.684,2.962,2.962,0,0,1-.288-0.576c-0.414-.936-0.936-2.2-1.351-3.439-0.18-.54-0.162-0.63.4-0.72l0.216-.036a0.315,0.315,0,0,0-.018-0.45c-0.613.036-.973,0.054-1.459,0.054-0.612,0-1.242-.018-1.692-0.054a0.31,0.31,0,0,0-.054.45l0.36,0.054c0.648,0.09.81,0.666,1.08,1.332Zm10.208-2.953a1.6,1.6,0,0,0,1.062-.126,1.115,1.115,0,0,0,.072-0.469,2.358,2.358,0,0,0-2.556-2.142,3.779,3.779,0,0,0-3.619,4.069,3.825,3.825,0,0,0,.756,2.341,3.226,3.226,0,0,0,2.611,1.188,3.146,3.146,0,0,0,2.826-1.674,0.238,0.238,0,0,0-.324-0.216,1.94,1.94,0,0,1-1.656.882c-1.927,0-2.989-1.549-2.989-3.367,0-.45.018-0.486,0.486-0.486h3.331Zm-3.493-.541c-0.126,0-.126-0.054-0.126-0.09a2.113,2.113,0,0,1,2-1.566,1.186,1.186,0,0,1,1.386,1.134,0.362,0.362,0,0,1-.108.342,4.232,4.232,0,0,1-1.873.18h-1.278Z"/>
      <path id="Golden_Swordsman_のコピー" data-name="Golden Swordsman のコピー" class="cls-2" d="M25.334,61.78c0-.918.018-1.422,0.774-1.513l0.288-.036a0.314,0.314,0,0,0-.018-0.45c-0.594.036-1.206,0.054-1.908,0.054-1.062,0-2.053-.018-2.575-0.054a0.3,0.3,0,0,0,0,.45l0.792,0.09c1.116,0.126,1.17.234,1.17,1.746v0.72a2.005,2.005,0,0,1-.18,1.026,2.509,2.509,0,0,1-1.981.54c-3.619,0-5.4-2.719-5.4-6.176,0-2.7,1.531-5.186,5.023-5.186,1.837,0,3.187.612,3.691,2.557A0.359,0.359,0,0,0,25.5,55.5a20.248,20.248,0,0,1-.27-2.611,4.748,4.748,0,0,1-1.116-.162,10.764,10.764,0,0,0-2.287-.27,7.455,7.455,0,0,0-5.708,2.107A6.179,6.179,0,0,0,14.5,58.827a5.668,5.668,0,0,0,1.656,4.087,7.5,7.5,0,0,0,5.492,2,14.074,14.074,0,0,0,3.223-.468,4.035,4.035,0,0,1,.882-0.162,0.148,0.148,0,0,0,.018-0.216,1.246,1.246,0,0,1-.432-1.278V61.78Zm6.273-4.5a3.784,3.784,0,0,0-3.835,3.889,3.56,3.56,0,0,0,3.691,3.709,3.678,3.678,0,0,0,3.8-3.871A3.6,3.6,0,0,0,31.607,57.279Zm2.107,4.015c0,1.386-.486,3.043-2.071,3.043s-2.323-1.764-2.323-3.4c0-1.981.882-3.115,2.071-3.115C33.1,57.819,33.714,59.764,33.714,61.294Zm4.78-7.2c0-.792.036-1.693,0.054-2.233a0.2,0.2,0,0,0-.18-0.108,12.783,12.783,0,0,1-1.945.756,0.274,0.274,0,0,0,0,.36l0.18,0.108c0.54,0.324.558,0.432,0.558,1.495v8.138c0,1.3-.018,1.476-0.684,1.566l-0.414.054a0.315,0.315,0,0,0,.036.45c0.54-.036,1.08-0.054,1.728-0.054,0.63,0,1.152.018,1.747,0.054a0.315,0.315,0,0,0,.036-0.45l-0.432-.054c-0.648-.09-0.684-0.27-0.684-1.566V54.092Zm8.868,0c0-.792.036-1.693,0.054-2.233a0.2,0.2,0,0,0-.18-0.108,12.783,12.783,0,0,1-1.945.756,0.274,0.274,0,0,0,0,.36l0.18,0.108c0.54,0.324.558,0.432,0.558,1.495v2.719c0,0.144-.018.252-0.108,0.252a3.69,3.69,0,0,0-1.206-.162,4.087,4.087,0,0,0-4.357,4.141,3.308,3.308,0,0,0,3.331,3.457,3.749,3.749,0,0,0,2.269-.828h0.072a2.006,2.006,0,0,1,.036.558v0.306a0.171,0.171,0,0,0,.2.144,13.539,13.539,0,0,1,2.377-.576,0.439,0.439,0,0,0,.018-0.576,2.944,2.944,0,0,1-.774.18c-0.5,0-.522-0.666-0.522-2.089v-7.9Zm-1.332,8.751a1.093,1.093,0,0,1-.126.666,2.2,2.2,0,0,1-1.386.5c-1.765,0-2.683-1.548-2.683-3.187,0-1.566.846-2.989,2.485-2.989a1.878,1.878,0,0,1,1.513.756,1.055,1.055,0,0,1,.2.7v3.547Zm8.382-2.827a1.6,1.6,0,0,0,1.062-.126,1.113,1.113,0,0,0,.072-0.468,2.359,2.359,0,0,0-2.557-2.143,3.78,3.78,0,0,0-3.619,4.069,3.823,3.823,0,0,0,.756,2.341,3.227,3.227,0,0,0,2.611,1.188A3.147,3.147,0,0,0,55.564,63.2a0.238,0.238,0,0,0-.324-0.216,1.941,1.941,0,0,1-1.657.882c-1.927,0-2.989-1.548-2.989-3.367,0-.45.018-0.486,0.486-0.486h3.331Zm-3.493-.54c-0.126,0-.126-0.054-0.126-0.09a2.114,2.114,0,0,1,2-1.566,1.186,1.186,0,0,1,1.386,1.134,0.362,0.362,0,0,1-.108.342,4.23,4.23,0,0,1-1.872.18H50.918Zm6.572,3.133c0,1.3-.018,1.476-0.684,1.566l-0.378.054a0.315,0.315,0,0,0,.036.45c0.5-.036,1.044-0.054,1.693-0.054,0.63,0,1.152.018,1.639,0.054a0.315,0.315,0,0,0,.036-0.45l-0.324-.054c-0.648-.108-0.684-0.27-0.684-1.566V59.854a1.517,1.517,0,0,1,.27-1.08,1.964,1.964,0,0,1,1.53-.63,1.561,1.561,0,0,1,1.693,1.783v2.683c0,1.3-.018,1.458-0.684,1.566l-0.342.054a0.315,0.315,0,0,0,.036.45c0.486-.036,1.026-0.054,1.674-0.054,0.63,0,1.152.018,1.693,0.054a0.315,0.315,0,0,0,.036-0.45l-0.4-.054c-0.648-.09-0.684-0.27-0.684-1.566v-3.1a2,2,0,0,0-2.107-2.233,4.936,4.936,0,0,0-2.521.918,0.189,0.189,0,0,1-.2-0.2c0-.162,0-0.432.036-0.846a0.21,0.21,0,0,0-.2-0.126,9.807,9.807,0,0,1-1.8.882,0.246,0.246,0,0,0-.018.324L57,58.341a0.935,0.935,0,0,1,.486,1.116v3.151Zm20.054-1.026a4.055,4.055,0,0,0-2.251-3.457l-1.44-.9a2.832,2.832,0,0,1-1.531-2.215,1.886,1.886,0,0,1,2.143-2,2.359,2.359,0,0,1,2.449,2.035,0.357,0.357,0,0,0,.45-0.054,7.873,7.873,0,0,0-.324-2.2,2.416,2.416,0,0,1-.63-0.108,6.963,6.963,0,0,0-1.674-.234c-2.341,0-3.673,1.386-3.673,3.1a3.841,3.841,0,0,0,1.945,3.1l1.71,1.116a2.705,2.705,0,0,1,1.477,2.521,2.045,2.045,0,0,1-2.251,2.071,3.276,3.276,0,0,1-3.1-2.683,0.317,0.317,0,0,0-.432.054,8.314,8.314,0,0,0,.486,2.521,5.62,5.62,0,0,0,2.809.666C76.049,64.913,77.544,63.563,77.544,61.582Zm3.406,1.765c0.144,0.378.432,1.116,0.54,1.494a0.314,0.314,0,0,0,.216.072,0.287,0.287,0,0,0,.216-0.072c0.144-.414.4-1.062,0.72-1.837l0.936-2.251a8.5,8.5,0,0,1,.4-0.882,9.1,9.1,0,0,1,.414.918l0.864,2.071c0.306,0.72.63,1.656,0.738,1.981a0.271,0.271,0,0,0,.2.072,0.362,0.362,0,0,0,.234-0.072c0.144-.468.36-0.99,0.612-1.639,0.342-.918,1.206-3.079,1.692-4.087,0.378-.792.54-1.044,0.972-1.134l0.36-.072a0.3,0.3,0,0,0-.054-0.432c-0.4.036-.828,0.054-1.17,0.054-0.45,0-.9-0.018-1.422-0.054a0.28,0.28,0,0,0-.018.432l0.45,0.072a0.309,0.309,0,0,1,.324.234,2.577,2.577,0,0,1-.18.774c-0.27.756-.99,2.665-1.224,3.187a2.887,2.887,0,0,1-.252.5,1.881,1.881,0,0,1-.234-0.5c-0.2-.486-1.17-2.773-1.368-3.367-0.216-.63-0.252-0.684.468-0.828l0.378-.072a0.283,0.283,0,0,0-.054-0.432c-0.612.036-1.152,0.054-1.71,0.054-0.468,0-1.044-.018-1.495-0.054a0.281,0.281,0,0,0-.054.432l0.288,0.072a1.009,1.009,0,0,1,.828.63,1.343,1.343,0,0,1-.162,1.044l-0.882,2.179a4.05,4.05,0,0,1-.414.864c0-.036-0.162-0.36-0.324-0.774l-1.116-2.755a3.69,3.69,0,0,1-.288-0.936,0.388,0.388,0,0,1,.4-0.252l0.414-.072a0.282,0.282,0,0,0-.036-0.432q-0.729.054-1.567,0.054c-0.54,0-1.044-.018-1.6-0.054a0.3,0.3,0,0,0-.054.432l0.288,0.072c0.45,0.108.666,0.288,1.08,1.3Zm13.133-6.068a3.784,3.784,0,0,0-3.835,3.889,3.56,3.56,0,0,0,3.691,3.709,3.678,3.678,0,0,0,3.8-3.871A3.6,3.6,0,0,0,94.083,57.279Zm2.107,4.015c0,1.386-.486,3.043-2.071,3.043s-2.323-1.764-2.323-3.4c0-1.981.882-3.115,2.071-3.115C95.578,57.819,96.19,59.764,96.19,61.294Zm3.6,1.314c0,1.3-.018,1.458-0.684,1.566l-0.342.054a0.315,0.315,0,0,0,.036.45c0.468-.036,1.008-0.054,1.657-0.054,0.63,0,1.152.018,2,.054a0.313,0.313,0,0,0,.036-0.45l-0.648-.054c-0.684-.054-0.72-0.27-0.72-1.566V60.16a2.739,2.739,0,0,1,.234-1.386,0.8,0.8,0,0,1,.648-0.36,1.482,1.482,0,0,1,.793.288,0.691,0.691,0,0,0,.4.126A0.8,0.8,0,0,0,103.971,58a0.746,0.746,0,0,0-.81-0.72,3.636,3.636,0,0,0-1.981,1.08,0.172,0.172,0,0,1-.054-0.162V57.153a0.139,0.139,0,0,0-.144-0.126,13.931,13.931,0,0,1-1.819.882,0.246,0.246,0,0,0-.018.324l0.162,0.108a0.935,0.935,0,0,1,.486,1.116v3.151Zm11.6-8.516c0-.792.036-1.693,0.054-2.233a0.2,0.2,0,0,0-.18-0.108,12.775,12.775,0,0,1-1.944.756,0.274,0.274,0,0,0,0,.36l0.18,0.108c0.54,0.324.558,0.432,0.558,1.495v2.719c0,0.144-.018.252-0.108,0.252a3.69,3.69,0,0,0-1.207-.162,4.087,4.087,0,0,0-4.357,4.141,3.309,3.309,0,0,0,3.331,3.457,3.75,3.75,0,0,0,2.269-.828h0.072a2.006,2.006,0,0,1,.036.558v0.306a0.171,0.171,0,0,0,.2.144,13.523,13.523,0,0,1,2.377-.576,0.439,0.439,0,0,0,.018-0.576,2.948,2.948,0,0,1-.775.18c-0.5,0-.522-0.666-0.522-2.089v-7.9Zm-1.332,8.751a1.093,1.093,0,0,1-.126.666,2.2,2.2,0,0,1-1.387.5c-1.764,0-2.682-1.548-2.682-3.187,0-1.566.846-2.989,2.484-2.989a1.878,1.878,0,0,1,1.513.756,1.055,1.055,0,0,1,.2.7v3.547Zm6.432-5.564c-1.368,0-2.449.738-2.449,2.053,0,0.99.739,1.62,1.783,2.215a2.093,2.093,0,0,1,1.386,1.656A1.109,1.109,0,0,1,116,64.355a2.173,2.173,0,0,1-1.909-1.855,0.305,0.305,0,0,0-.414.018,5.355,5.355,0,0,0,.216,1.819,3,3,0,0,0,1.927.54c1.332,0,2.593-.684,2.593-2.053,0-1.278-.883-1.891-1.837-2.431-0.63-.36-1.386-0.756-1.386-1.494a1.064,1.064,0,0,1,1.152-1.1,1.758,1.758,0,0,1,1.585,1.314,0.313,0.313,0,0,0,.432-0.054,4.206,4.206,0,0,0-.288-1.458A3.189,3.189,0,0,0,116.489,57.279Zm13.614,5.33c0,1.3-.018,1.458-0.684,1.566l-0.324.054a0.315,0.315,0,0,0,.036.45c0.5-.036.99-0.054,1.638-0.054,0.63,0,1.153.018,1.747,0.054a0.315,0.315,0,0,0,.036-0.45l-0.432-.054c-0.648-.09-0.684-0.27-0.684-1.566v-3.1a2.036,2.036,0,0,0-2.143-2.233,4.512,4.512,0,0,0-2.449.918,0.566,0.566,0,0,1-.45.144,2.055,2.055,0,0,0-1.909-1.062,4.325,4.325,0,0,0-2.394.918,0.189,0.189,0,0,1-.2-0.2c0-.162,0-0.432.036-0.846a0.21,0.21,0,0,0-.2-0.126,9.812,9.812,0,0,1-1.8.882,0.246,0.246,0,0,0-.018.324l0.162,0.108a0.935,0.935,0,0,1,.486,1.116v3.151c0,1.3-.018,1.476-0.684,1.566l-0.432.054a0.315,0.315,0,0,0,.036.45c0.558-.036,1.1-0.054,1.746-0.054,0.631,0,1.153.018,1.639,0.054a0.315,0.315,0,0,0,.036-0.45l-0.324-.054c-0.648-.108-0.684-0.27-0.684-1.566V59.818a1.4,1.4,0,0,1,.27-1.026,1.929,1.929,0,0,1,1.512-.648A1.565,1.565,0,0,1,125.332,60v2.611c0,1.3-.018,1.458-0.685,1.566l-0.324.054a0.315,0.315,0,0,0,.036.45c0.505-.036.991-0.054,1.639-0.054,0.63,0,1.152.018,1.692,0.054a0.315,0.315,0,0,0,.036-0.45l-0.378-.054c-0.648-.09-0.684-0.27-0.684-1.566V59.854a1.4,1.4,0,0,1,.27-1.08,1.94,1.94,0,0,1,1.5-.63A1.562,1.562,0,0,1,130.1,60v2.611Zm5.023-.936c-1.152.414-1.494,0.828-1.494,1.53a1.685,1.685,0,0,0,.558,1.26,1.863,1.863,0,0,0,1.26.414,2.663,2.663,0,0,0,1.3-.45,2.782,2.782,0,0,1,.7-0.36,0.482,0.482,0,0,1,.288.252,1.436,1.436,0,0,0,1.17.558,1.891,1.891,0,0,0,1.513-.792,0.207,0.207,0,0,0-.126-0.234,0.761,0.761,0,0,0-.235.126,1.034,1.034,0,0,1-.45.108c-0.7,0-.864-0.738-0.828-1.566l0.108-3.133a1.746,1.746,0,0,0-1.872-2.107c-1.315,0-3.349,1.278-3.349,2.215a0.228,0.228,0,0,0,.252.252,1.936,1.936,0,0,0,1.026-.342,0.8,0.8,0,0,0,.18-0.612,1.046,1.046,0,0,1,1.152-.81,1.313,1.313,0,0,1,1.315,1.566l-0.018.828a0.437,0.437,0,0,1-.306.522Zm-0.108,1.314c0-.7.522-0.972,1.584-1.332a3.415,3.415,0,0,1,.739-0.18c0.108,0,.18.036,0.18,0.234l-0.036,1.062a1.134,1.134,0,0,1-.234.846,2.038,2.038,0,0,1-1.1.45A1.085,1.085,0,0,1,135.018,62.987Zm7.38-.378c0,1.3-.018,1.476-0.684,1.566l-0.378.054a0.315,0.315,0,0,0,.036.45c0.5-.036,1.044-0.054,1.692-0.054,0.63,0,1.152.018,1.639,0.054a0.315,0.315,0,0,0,.036-0.45l-0.325-.054c-0.648-.108-0.684-0.27-0.684-1.566V59.854a1.517,1.517,0,0,1,.27-1.08,1.965,1.965,0,0,1,1.531-.63,1.561,1.561,0,0,1,1.692,1.783v2.683c0,1.3-.018,1.458-0.684,1.566l-0.342.054a0.315,0.315,0,0,0,.036.45c0.486-.036,1.026-0.054,1.675-0.054,0.63,0,1.152.018,1.692,0.054a0.315,0.315,0,0,0,.036-0.45l-0.4-.054c-0.648-.09-0.684-0.27-0.684-1.566v-3.1a2,2,0,0,0-2.107-2.233,4.94,4.94,0,0,0-2.521.918,0.189,0.189,0,0,1-.2-0.2c0-.162,0-0.432.036-0.846a0.21,0.21,0,0,0-.2-0.126,9.8,9.8,0,0,1-1.8.882,0.246,0.246,0,0,0-.018.324l0.162,0.108a0.935,0.935,0,0,1,.486,1.116v3.151Z"/>
      <path id="Goldran_のコピー" data-name="Goldran のコピー" class="cls-2" d="M270.3,580.725c0-2.551.05-3.951,2.15-4.2l0.8-.1a0.873,0.873,0,0,0-.05-1.25c-1.65.1-3.35,0.15-5.3,0.15-2.95,0-5.7-.05-7.15-0.15a0.835,0.835,0,0,0,0,1.25l2.2,0.25c3.1,0.35,3.25.65,3.25,4.851v2a5.57,5.57,0,0,1-.5,2.85c-0.55.85-2.4,1.5-5.5,1.5-10.051,0-15-7.551-15-17.151,0-7.5,4.25-14.4,13.95-14.4,5.1,0,8.851,1.7,10.251,7.1a1,1,0,0,0,1.35-.15,56.253,56.253,0,0,1-.75-7.25,13.2,13.2,0,0,1-3.1-.45,29.882,29.882,0,0,0-6.35-.75c-7.551,0-12.5,2.35-15.851,5.85a17.157,17.157,0,0,0-4.5,11.851,15.739,15.739,0,0,0,4.6,11.351c3.85,3.9,9.3,5.55,15.25,5.55a39.084,39.084,0,0,0,8.951-1.3,11.2,11.2,0,0,1,2.45-.45,0.412,0.412,0,0,0,.05-0.6c-0.9-.35-1.2-1.55-1.2-3.55v-2.8Zm16.979-12.5a10.508,10.508,0,0,0-10.651,10.8,9.885,9.885,0,0,0,10.251,10.3c6.25,0,10.551-4.5,10.551-10.751A9.99,9.99,0,0,0,287.281,568.224Zm5.85,11.15c0,3.851-1.35,8.451-5.75,8.451s-6.45-4.9-6.45-9.451c0-5.5,2.45-8.65,5.75-8.65C291.431,569.724,293.131,575.124,293.131,579.374Zm12.8-20c0-2.2.1-4.7,0.15-6.2a0.55,0.55,0,0,0-.5-0.3,35.484,35.484,0,0,1-5.4,2.1,0.76,0.76,0,0,0,0,1l0.5,0.3c1.5,0.9,1.55,1.2,1.55,4.15v22.6c0,3.6-.05,4.1-1.9,4.35l-1.15.15a0.875,0.875,0,0,0,.1,1.25c1.5-.1,3-0.15,4.8-0.15,1.75,0,3.2.05,4.85,0.15a0.875,0.875,0,0,0,.1-1.25l-1.2-.15c-1.8-.25-1.9-0.75-1.9-4.35V559.373Zm24.15,0c0-2.2.1-4.7,0.15-6.2a0.55,0.55,0,0,0-.5-0.3,35.478,35.478,0,0,1-5.4,2.1,0.76,0.76,0,0,0,0,1l0.5,0.3c1.5,0.9,1.55,1.2,1.55,4.15v7.551c0,0.4-.05.7-0.3,0.7a10.253,10.253,0,0,0-3.35-.45c-6.8,0-12.1,4.5-12.1,11.5,0,5.251,3.7,9.6,9.251,9.6,2.4,0,4.1-.8,6.3-2.3h0.2a5.569,5.569,0,0,1,.1,1.55v0.85a0.475,0.475,0,0,0,.55.4,37.6,37.6,0,0,1,6.6-1.6,1.218,1.218,0,0,0,.05-1.6,8.173,8.173,0,0,1-2.15.5c-1.4,0-1.451-1.85-1.451-5.8V559.373Zm-3.7,24.3a3.033,3.033,0,0,1-.35,1.85,6.118,6.118,0,0,1-3.85,1.4c-4.9,0-7.45-4.3-7.45-8.851,0-4.35,2.35-8.3,6.9-8.3a5.216,5.216,0,0,1,4.2,2.1,2.928,2.928,0,0,1,.55,1.95v9.851Zm13.044-.65c0,3.6-.05,4.05-1.9,4.35l-0.95.15a0.875,0.875,0,0,0,.1,1.25c1.3-.1,2.8-0.15,4.6-0.15,1.75,0,3.2.05,5.55,0.15a0.875,0.875,0,0,0,.1-1.25l-1.8-.15c-1.9-.15-2-0.75-2-4.35v-6.8a7.6,7.6,0,0,1,.65-3.85,2.219,2.219,0,0,1,1.8-1,4.1,4.1,0,0,1,2.2.8,1.921,1.921,0,0,0,1.1.35,2.218,2.218,0,0,0,2.15-2.3,2.071,2.071,0,0,0-2.25-2c-1.85,0-3.75,1.55-5.5,3a0.478,0.478,0,0,1-.15-0.45v-2.9a0.387,0.387,0,0,0-.4-0.35,38.736,38.736,0,0,1-5.051,2.45,0.684,0.684,0,0,0-.05.9l0.45,0.3c1.35,0.9,1.35,1.15,1.35,3.1v8.751Zm17.261-2.6c-3.2,1.151-4.151,2.3-4.151,4.251a4.678,4.678,0,0,0,1.55,3.5,5.176,5.176,0,0,0,3.5,1.15,7.4,7.4,0,0,0,3.6-1.25,7.677,7.677,0,0,1,1.95-1,1.337,1.337,0,0,1,.8.7,3.99,3.99,0,0,0,3.25,1.55,5.246,5.246,0,0,0,4.2-2.2,0.576,0.576,0,0,0-.35-0.65,2.106,2.106,0,0,0-.65.35,2.873,2.873,0,0,1-1.25.3c-1.95,0-2.4-2.05-2.3-4.35l0.3-8.7c0.15-3.75-1.6-5.85-5.2-5.85-3.65,0-9.3,3.55-9.3,6.15a0.633,0.633,0,0,0,.7.7,5.38,5.38,0,0,0,2.85-.95,2.228,2.228,0,0,0,.5-1.7c0.1-1.55,1.8-2.25,3.2-2.25,3.1,0,3.7,2.5,3.65,4.35l-0.05,2.3a1.215,1.215,0,0,1-.85,1.45Zm-0.3,3.651c0-1.95,1.451-2.7,4.4-3.7a9.436,9.436,0,0,1,2.05-.5c0.3,0,.5.1,0.5,0.651l-0.1,2.95a3.148,3.148,0,0,1-.65,2.35,5.654,5.654,0,0,1-3.05,1.25A3.015,3.015,0,0,1,356.385,584.075Zm20.115-1.05c0,3.6-.05,4.1-1.9,4.35l-1.05.15a0.875,0.875,0,0,0,.1,1.25c1.4-.1,2.9-0.15,4.7-0.15,1.75,0,3.2.05,4.55,0.15a0.875,0.875,0,0,0,.1-1.25l-0.9-.15c-1.8-.3-1.9-0.75-1.9-4.35v-7.651a4.212,4.212,0,0,1,.75-3,5.452,5.452,0,0,1,4.25-1.75c3.4,0,4.7,2.1,4.7,4.95v7.451c0,3.6-.05,4.05-1.9,4.35l-0.95.15a0.875,0.875,0,0,0,.1,1.25c1.35-.1,2.85-0.15,4.65-0.15,1.75,0,3.2.05,4.7,0.15a0.875,0.875,0,0,0,.1-1.25l-1.1-.15c-1.8-.25-1.9-0.75-1.9-4.35v-8.6c0-3.35-1.7-6.2-5.85-6.2-2.55,0-4.9,1.25-7,2.55a0.525,0.525,0,0,1-.55-0.55c0-.45,0-1.2.1-2.35a0.584,0.584,0,0,0-.55-0.35,27.254,27.254,0,0,1-5,2.45,0.684,0.684,0,0,0-.05.9l0.45,0.3c1.35,0.9,1.35,1.15,1.35,3.1v8.751Z"/>
      <path id="Golden_Combination_のコピー" data-name="Golden Combination のコピー" class="cls-2" d="M301.2,242.833c0-1.224.024-1.9,1.032-2.017l0.384-.048a0.418,0.418,0,0,0-.024-0.6c-0.792.048-1.608,0.072-2.544,0.072-1.416,0-2.736-.024-3.432-0.072a0.4,0.4,0,0,0,0,.6l1.056,0.121c1.488,0.168,1.56.312,1.56,2.328v0.96a2.673,2.673,0,0,1-.24,1.368c-0.264.408-1.152,0.72-2.64,0.72-4.824,0-7.2-3.624-7.2-8.233,0-3.6,2.04-6.912,6.7-6.912,2.448,0,4.248.816,4.92,3.408a0.478,0.478,0,0,0,.648-0.072,27,27,0,0,1-.36-3.48,6.334,6.334,0,0,1-1.488-.216,14.343,14.343,0,0,0-3.048-.36c-3.624,0-6,1.128-7.609,2.808a8.236,8.236,0,0,0-2.16,5.688,7.556,7.556,0,0,0,2.208,5.449,10,10,0,0,0,7.321,2.664,18.76,18.76,0,0,0,4.3-.624,5.377,5.377,0,0,1,1.176-.216,0.2,0.2,0,0,0,.024-0.288c-0.432-.168-0.576-0.744-0.576-1.7v-1.344Zm8.323-6a5.044,5.044,0,0,0-5.113,5.185,4.745,4.745,0,0,0,4.921,4.944,4.9,4.9,0,0,0,5.064-5.16A4.8,4.8,0,0,0,309.521,236.832Zm2.808,5.353c0,1.848-.648,4.056-2.76,4.056s-3.1-2.352-3.1-4.536c0-2.641,1.177-4.153,2.761-4.153C311.513,237.552,312.329,240.144,312.329,242.185Zm6.328-9.6c0-1.056.048-2.256,0.072-2.976a0.264,0.264,0,0,0-.24-0.144,17.029,17.029,0,0,1-2.592,1.008,0.365,0.365,0,0,0,0,.48l0.24,0.144c0.72,0.432.744,0.576,0.744,1.992v10.849c0,1.728-.024,1.968-0.912,2.088l-0.552.072a0.42,0.42,0,0,0,.048.6c0.72-.048,1.44-0.072,2.3-0.072,0.84,0,1.536.024,2.328,0.072a0.42,0.42,0,0,0,.048-0.6l-0.576-.072c-0.864-.12-0.912-0.36-0.912-2.088V232.584Zm11.778,0c0-1.056.048-2.256,0.072-2.976a0.264,0.264,0,0,0-.24-0.144,17,17,0,0,1-2.593,1.008,0.365,0.365,0,0,0,0,.48l0.24,0.144c0.721,0.432.745,0.576,0.745,1.992v3.624c0,0.192-.024.336-0.144,0.336a4.929,4.929,0,0,0-1.609-.216c-3.264,0-5.808,2.16-5.808,5.521a4.41,4.41,0,0,0,4.44,4.608,5,5,0,0,0,3.025-1.1h0.1a2.673,2.673,0,0,1,.048.744v0.408a0.228,0.228,0,0,0,.264.192,18.043,18.043,0,0,1,3.168-.768,0.585,0.585,0,0,0,.024-0.768,3.923,3.923,0,0,1-1.032.24c-0.672,0-.7-0.888-0.7-2.784V232.584Zm-1.776,11.665a1.456,1.456,0,0,1-.168.888,2.941,2.941,0,0,1-1.849.672c-2.352,0-3.576-2.064-3.576-4.248,0-2.089,1.128-3.985,3.312-3.985a2.507,2.507,0,0,1,2.017,1.008,1.406,1.406,0,0,1,.264.936v4.729Zm11.133-3.769c1.008,0,1.344-.024,1.416-0.168a1.483,1.483,0,0,0,.1-0.624,3.145,3.145,0,0,0-3.408-2.856c-2.88,0-4.825,2.472-4.825,5.425a5.1,5.1,0,0,0,1.009,3.12,4.3,4.3,0,0,0,3.48,1.584,4.2,4.2,0,0,0,3.768-2.232,0.317,0.317,0,0,0-.432-0.288,2.586,2.586,0,0,1-2.208,1.176c-2.568,0-3.984-2.064-3.984-4.488,0-.6.024-0.649,0.648-0.649h4.44Zm-4.656-.72c-0.168,0-.168-0.072-0.168-0.12a2.817,2.817,0,0,1,2.664-2.088,1.581,1.581,0,0,1,1.848,1.512,0.483,0.483,0,0,1-.144.456c-0.192.144-.72,0.24-2.5,0.24h-1.7Zm8.721,4.177c0,1.728-.024,1.968-0.912,2.088l-0.5.072a0.42,0.42,0,0,0,.048.6c0.672-.048,1.392-0.072,2.256-0.072,0.84,0,1.536.024,2.184,0.072a0.418,0.418,0,0,0,.048-0.6l-0.432-.072c-0.864-.144-0.912-0.36-0.912-2.088v-3.673a2.022,2.022,0,0,1,.36-1.44,2.619,2.619,0,0,1,2.041-.84,2.081,2.081,0,0,1,2.256,2.376v3.577c0,1.728-.024,1.944-0.912,2.088l-0.456.072a0.42,0.42,0,0,0,.048.6c0.648-.048,1.368-0.072,2.232-0.072,0.84,0,1.536.024,2.256,0.072a0.42,0.42,0,0,0,.048-0.6l-0.528-.072c-0.864-.12-0.912-0.36-0.912-2.088v-4.129a2.663,2.663,0,0,0-2.808-2.976,6.583,6.583,0,0,0-3.361,1.224,0.252,0.252,0,0,1-.264-0.264c0-.216,0-0.576.048-1.128a0.28,0.28,0,0,0-.264-0.168,13.078,13.078,0,0,1-2.4,1.176,0.328,0.328,0,0,0-.024.432l0.216,0.144c0.648,0.432.648,0.552,0.648,1.488v4.2ZM259.239,268.8a7.737,7.737,0,0,0,3.408,6.6,10.519,10.519,0,0,0,5.977,1.608,14.144,14.144,0,0,0,3.792-.552,4.833,4.833,0,0,1,.84-0.24,9.037,9.037,0,0,0,1.153-3.288,0.506,0.506,0,0,0-.625-0.1,5.116,5.116,0,0,1-5.016,3.432c-3.936,0-7.129-2.784-7.129-7.825,0-4.968,3.121-7.3,6.793-7.3,3.48,0,4.56,1.872,4.92,3.5A0.506,0.506,0,0,0,274,264.6c-0.192-1.464-.312-2.976-0.336-3.528a1.81,1.81,0,0,1-.672-0.1,18.519,18.519,0,0,0-4.248-.576,10.347,10.347,0,0,0-6.481,2.04A7.972,7.972,0,0,0,259.239,268.8Zm21.819-1.968a5.044,5.044,0,0,0-5.112,5.185,4.745,4.745,0,0,0,4.92,4.944,4.9,4.9,0,0,0,5.064-5.16A4.8,4.8,0,0,0,281.058,266.832Zm2.808,5.353c0,1.848-.648,4.056-2.76,4.056s-3.1-2.352-3.1-4.536c0-2.641,1.176-4.153,2.76-4.153C283.05,267.552,283.866,270.144,283.866,272.185Zm17.475,1.752c0,1.728-.024,1.944-0.912,2.088L300,276.1a0.42,0.42,0,0,0,.048.6c0.672-.048,1.32-0.072,2.184-0.072,0.84,0,1.536.024,2.328,0.072a0.418,0.418,0,0,0,.048-0.6l-0.576-.072c-0.864-.12-0.912-0.36-0.912-2.088v-4.129a2.714,2.714,0,0,0-2.856-2.976A6.013,6.013,0,0,0,297,268.056a0.755,0.755,0,0,1-.6.192,2.74,2.74,0,0,0-2.544-1.416,5.768,5.768,0,0,0-3.193,1.224,0.252,0.252,0,0,1-.264-0.264c0-.216,0-0.576.048-1.128a0.28,0.28,0,0,0-.264-0.168,13.078,13.078,0,0,1-2.4,1.176,0.328,0.328,0,0,0-.024.432l0.216,0.144c0.648,0.432.648,0.552,0.648,1.488v4.2c0,1.728-.024,1.968-0.912,2.088l-0.576.072a0.42,0.42,0,0,0,.048.6c0.744-.048,1.464-0.072,2.328-0.072,0.84,0,1.536.024,2.184,0.072a0.42,0.42,0,0,0,.048-0.6l-0.432-.072c-0.864-.144-0.912-0.36-0.912-2.088v-3.721a1.869,1.869,0,0,1,.36-1.368,2.572,2.572,0,0,1,2.016-.864c1.489,0,2.209.864,2.209,2.472v3.481c0,1.728-.024,1.944-0.912,2.088l-0.432.072a0.42,0.42,0,0,0,.048.6c0.672-.048,1.32-0.072,2.184-0.072,0.84,0,1.536.024,2.256,0.072a0.42,0.42,0,0,0,.048-0.6l-0.5-.072c-0.864-.12-0.912-0.36-0.912-2.088v-3.673a1.861,1.861,0,0,1,.36-1.44,2.586,2.586,0,0,1,1.992-.84c1.512,0,2.232.84,2.232,2.472v3.481Zm5.286,0.6c0,1.248-.024,1.7-0.048,2.04a0.264,0.264,0,0,0,.24.144,0.116,0.116,0,0,0,.1-0.024,0.748,0.748,0,0,1,.5-0.36,5.121,5.121,0,0,1,1.008.312,6.872,6.872,0,0,0,2.041.312,5.256,5.256,0,0,0,5.52-5.424,4.5,4.5,0,0,0-4.584-4.7,5.545,5.545,0,0,0-2.761.792c-0.144,0-.24-0.1-0.24-0.5v-4.536c0-1.056.048-2.136,0.1-2.976a0.264,0.264,0,0,0-.24-0.144,22.135,22.135,0,0,1-2.616,1.008,0.365,0.365,0,0,0,0,.48l0.24,0.144c0.72,0.432.744,0.576,0.744,1.992v11.449Zm1.776-4.921c0-.936.048-1.2,0.288-1.368a3.138,3.138,0,0,1,1.633-.384c2.376,0,3.648,1.92,3.648,4.393,0,2.064-.888,3.984-3.144,3.984a2.289,2.289,0,0,1-1.825-.792,3.319,3.319,0,0,1-.6-2.088v-3.745Zm10.236,4.321c0,1.728-.024,1.968-0.912,2.088l-0.5.072a0.42,0.42,0,0,0,.048.6c0.672-.048,1.392-0.072,2.256-0.072,0.84,0,1.537.024,2.257,0.072a0.42,0.42,0,0,0,.048-0.6l-0.5-.072c-0.865-.12-0.913-0.36-0.913-2.088v-4.321c0-.984.048-2.136,0.1-2.976a0.222,0.222,0,0,0-.24-0.144,16.487,16.487,0,0,1-2.472,1.176,0.328,0.328,0,0,0-.024.432l0.216,0.144c0.648,0.432.648,0.552,0.648,1.488v4.2Zm0.792-12.289a1.247,1.247,0,0,0-1.3,1.3,1.248,1.248,0,0,0,2.5-.048A1.2,1.2,0,0,0,319.431,261.648Zm5.453,12.289c0,1.728-.024,1.968-0.912,2.088l-0.5.072a0.42,0.42,0,0,0,.048.6c0.672-.048,1.392-0.072,2.256-0.072,0.84,0,1.536.024,2.184,0.072a0.42,0.42,0,0,0,.048-0.6l-0.432-.072c-0.864-.144-0.912-0.36-0.912-2.088v-3.673a2.022,2.022,0,0,1,.36-1.44,2.617,2.617,0,0,1,2.04-.84,2.081,2.081,0,0,1,2.257,2.376v3.577c0,1.728-.024,1.944-0.912,2.088l-0.456.072a0.42,0.42,0,0,0,.048.6c0.648-.048,1.368-0.072,2.232-0.072,0.84,0,1.536.024,2.256,0.072a0.42,0.42,0,0,0,.048-0.6l-0.528-.072c-0.864-.12-0.912-0.36-0.912-2.088v-4.129a2.663,2.663,0,0,0-2.808-2.976,6.58,6.58,0,0,0-3.361,1.224,0.252,0.252,0,0,1-.264-0.264c0-.216,0-0.576.048-1.128a0.28,0.28,0,0,0-.264-0.168,13.078,13.078,0,0,1-2.4,1.176,0.328,0.328,0,0,0-.024.432l0.216,0.144c0.648,0.432.648,0.552,0.648,1.488v4.2Zm13.047-1.248c-1.537.552-1.993,1.1-1.993,2.04a2.245,2.245,0,0,0,.744,1.68,2.487,2.487,0,0,0,1.681.552,3.552,3.552,0,0,0,1.728-.6,3.685,3.685,0,0,1,.936-0.48,0.642,0.642,0,0,1,.384.336,1.915,1.915,0,0,0,1.56.744,2.518,2.518,0,0,0,2.016-1.056,0.276,0.276,0,0,0-.168-0.312,1.011,1.011,0,0,0-.312.168,1.379,1.379,0,0,1-.6.144c-0.936,0-1.152-.984-1.1-2.088l0.144-4.177c0.072-1.8-.768-2.808-2.5-2.808-1.752,0-4.465,1.7-4.465,2.952a0.3,0.3,0,0,0,.336.336,2.589,2.589,0,0,0,1.369-.456,1.071,1.071,0,0,0,.24-0.816,1.4,1.4,0,0,1,1.536-1.08,1.751,1.751,0,0,1,1.752,2.088l-0.024,1.105a0.583,0.583,0,0,1-.408.7Zm-0.144,1.752c0-.936.7-1.3,2.112-1.776a4.529,4.529,0,0,1,.984-0.24c0.144,0,.24.048,0.24,0.312l-0.048,1.416a1.511,1.511,0,0,1-.312,1.128,2.714,2.714,0,0,1-1.464.6A1.447,1.447,0,0,1,337.787,274.441Zm13.762-6.265a0.767,0.767,0,0,0-.024-1.008H348.86c-0.408,0-.432-0.024-0.432-0.456v-1.08a0.455,0.455,0,0,0-.5-0.12,5.941,5.941,0,0,1-1.008,1.416,4.765,4.765,0,0,1-1.536.744,0.4,0.4,0,0,0,.072.5h0.672c0.48,0,.5.048,0.5,0.7v5.5c0,1.44.432,2.592,2.5,2.592a3.327,3.327,0,0,0,2.521-1.1,0.319,0.319,0,0,0-.24-0.408c-0.073,0-.385.264-0.6,0.336a1.832,1.832,0,0,1-.648.12c-1.584,0-1.752-1.272-1.752-2.664v-4.489c0-.5.024-0.576,0.432-0.576h2.713Zm2.884,5.761c0,1.728-.024,1.968-0.912,2.088l-0.5.072a0.42,0.42,0,0,0,.048.6c0.672-.048,1.392-0.072,2.256-0.072,0.84,0,1.536.024,2.256,0.072a0.42,0.42,0,0,0,.048-0.6l-0.5-.072c-0.864-.12-0.912-0.36-0.912-2.088v-4.321c0-.984.048-2.136,0.1-2.976a0.222,0.222,0,0,0-.24-0.144,16.487,16.487,0,0,1-2.472,1.176,0.328,0.328,0,0,0-.024.432l0.216,0.144c0.648,0.432.648,0.552,0.648,1.488v4.2Zm0.792-12.289a1.247,1.247,0,0,0-1.3,1.3,1.248,1.248,0,0,0,2.5-.048A1.2,1.2,0,0,0,355.225,261.648Zm8.571,5.184a5.044,5.044,0,0,0-5.113,5.185,4.745,4.745,0,0,0,4.921,4.944,4.9,4.9,0,0,0,5.064-5.16A4.8,4.8,0,0,0,363.8,266.832Zm2.808,5.353c0,1.848-.648,4.056-2.76,4.056s-3.1-2.352-3.1-4.536c0-2.641,1.176-4.153,2.761-4.153C365.788,267.552,366.6,270.144,366.6,272.185Zm4.715,1.752c0,1.728-.024,1.968-0.912,2.088l-0.5.072a0.42,0.42,0,0,0,.048.6c0.672-.048,1.392-0.072,2.256-0.072,0.84,0,1.537.024,2.185,0.072a0.42,0.42,0,0,0,.048-0.6l-0.432-.072c-0.865-.144-0.913-0.36-0.913-2.088v-3.673a2.022,2.022,0,0,1,.36-1.44,2.621,2.621,0,0,1,2.041-.84,2.081,2.081,0,0,1,2.256,2.376v3.577c0,1.728-.024,1.944-0.912,2.088l-0.456.072a0.42,0.42,0,0,0,.048.6c0.648-.048,1.368-0.072,2.232-0.072,0.84,0,1.536.024,2.256,0.072a0.42,0.42,0,0,0,.048-0.6l-0.528-.072c-0.864-.12-0.912-0.36-0.912-2.088v-4.129a2.663,2.663,0,0,0-2.808-2.976,6.587,6.587,0,0,0-3.361,1.224,0.252,0.252,0,0,1-.264-0.264c0-.216,0-0.576.048-1.128a0.28,0.28,0,0,0-.264-0.168,13.078,13.078,0,0,1-2.4,1.176,0.328,0.328,0,0,0-.024.432l0.216,0.144c0.648,0.432.648,0.552,0.648,1.488v4.2Z"/>
    </g>
    <path id="多角形_1" data-name="多角形 1" class="cls-3" d="M388,176.862L426,244,358,353.138H282L214,244l38-67.138H388Z"/>
    <g id="グループ_2" data-name="グループ 2">
      <path id="三角形_1" data-name="三角形 1" class="cls-4" d="M320.5,511.087L298.02,471.9h44.969Z"/>
      <path id="線_2" data-name="線 2" class="cls-5" d="M321,471h-1V370h1V471Z"/>
      <path id="線_1" data-name="線 1" class="cls-5" d="M280,369v-1h80v1H280Z"/>
    </g>
    <g id="グループ_2_のコピー" data-name="グループ 2 のコピー">
      <path id="三角形_1-2" data-name="三角形 1" class="cls-4" d="M194.984,162.969l22.485,39.187H172.5Z"/>
      <path id="線_2-2" data-name="線 2" class="cls-5" d="M96.493,132.088l0.5-.866,87.468,50.5-0.5.866Z"/>
      <path id="線_1-2" data-name="線 1" class="cls-5" d="M238.827,168.179l0.866,0.5-40,69.282-0.866-.5Z"/>
    </g>
    <g id="グループ_2_のコピー_2" data-name="グループ 2 のコピー 2">
      <path id="三角形_1-3" data-name="三角形 1" class="cls-4" d="M467.309,202.31l-45.179-.121,22.484-38.945Z"/>
      <path id="線_2-3" data-name="線 2" class="cls-5" d="M543.164,131.222l0.5,0.866-87.468,50.5-0.5-.866Z"/>
      <path id="線_1-3" data-name="線 1" class="cls-5" d="M441.143,237.674l-0.866.5-40-69.282,0.866-.5Z"/>
    </g>
  </g>
</svg>
