<svg id="グループ_3" data-name="グループ 3" xmlns="http://www.w3.org/2000/svg" xmlns:xlink="http://www.w3.org/1999/xlink" width="640" height="640" viewBox="0 0 640 640">
  <defs>
    <style>
      .cls-1 {
        filter: url(#filter);
      }

      .cls-2 {
        fill: #fff;
      }

      .cls-2, .cls-3, .cls-4, .cls-5 {
        fill-rule: evenodd;
      }

      .cls-3, .cls-4, .cls-5 {
        fill: none;
        stroke: #fff;
      }

      .cls-3 {
        stroke-width: 4px;
      }

      .cls-4 {
        stroke-width: 2px;
      }

      .cls-5 {
        stroke-width: 1px;
      }
    </style>
    <filter id="filter" filterUnits="userSpaceOnUse">
      <feFlood result="flood" flood-color="#ddcf8e"/>
      <feComposite result="composite" operator="in" in2="SourceGraphic"/>
      <feBlend result="blend" in2="SourceGraphic"/>
    </filter>
  </defs>
  <g id="グループ_1" data-name="グループ 1" class="cls-1">
    <g id="text_shape">
      <path id="Vehicle" class="cls-2" d="M217.491,108.625a58.258,58.258,0,0,1,2.3,6.65,2.006,2.006,0,0,0,.75.15,1.008,1.008,0,0,0,.55-0.15c0.85-2.65,3.2-8.45,5.2-13.051l2.7-6.15a120.658,120.658,0,0,1,5.6-11.5,3.194,3.194,0,0,1,2.6-1.75l1.5-.1a0.984,0.984,0,0,0-.1-1.25c-1.65.1-3.2,0.15-4.85,0.15-1.9,0-3.8-.05-5.2-0.15a0.875,0.875,0,0,0-.1,1.25l0.9,0.1c1.75,0.2,2.25.6,2.25,0.95a5.316,5.316,0,0,1-.45,1.95c-0.85,2.15-3.2,7.8-4.65,11.2-1.15,2.65-3.251,7.8-4.8,11.1-2.5-5.7-4.8-11.451-7.1-17.252a62.635,62.635,0,0,1-2.5-7c0.05-.4.45-0.7,2.35-0.95l0.75-.1a0.875,0.875,0,0,0-.1-1.25c-2.1.1-3.85,0.15-6.05,0.15-2.151,0-3.751-.05-5.2-0.15a0.838,0.838,0,0,0-.1,1.25l0.9,0.1c2.15,0.25,2.9,1.3,4.05,4.1Zm31.065-6.8c2.1,0,2.8-.05,2.95-0.35a3.09,3.09,0,0,0,.2-1.3c0-3-2.8-5.95-7.1-5.95-6,0-10.051,5.15-10.051,11.3a10.617,10.617,0,0,0,2.1,6.5,8.964,8.964,0,0,0,7.251,3.3,8.739,8.739,0,0,0,7.85-4.65,0.661,0.661,0,0,0-.9-0.6,5.389,5.389,0,0,1-4.6,2.45c-5.35,0-8.3-4.3-8.3-9.351,0-1.25.051-1.35,1.351-1.35h9.25Zm-9.7-1.5c-0.35,0-.35-0.15-0.35-0.25,0.05-1.65,2.6-4.35,5.55-4.35,2.9,0,3.85,1.75,3.85,3.15a1.006,1.006,0,0,1-.3.95c-0.4.3-1.5,0.5-5.2,0.5h-3.55Zm17.679,8.7c0,3.6-.05,4.15-1.9,4.35l-1.25.15a0.875,0.875,0,0,0,.1,1.25c1.6-.1,3.1-0.15,4.9-0.15,1.75,0,3.2.05,4.7,0.15a0.879,0.879,0,0,0,.1-1.25l-1.05-.15c-1.8-.25-1.9-0.75-1.9-4.35v-8.4c0-1.75.15-2,1.05-2.75a5.985,5.985,0,0,1,3.9-1.35c3.2,0,4.75,2.15,4.75,5.35v7.151c0,3.6-.05,4.05-1.9,4.35l-1,.15a0.875,0.875,0,0,0,.1,1.25c1.35-.1,2.85-0.15,4.65-0.15,1.75,0,3.2.05,5,.15a0.875,0.875,0,0,0,.1-1.25l-1.35-.15c-1.8-.2-1.9-0.75-1.9-4.35v-8.351c0-3.5-1.7-6.45-6.45-6.45a11.357,11.357,0,0,0-6.75,2.6,1.4,1.4,0,0,1-.2-0.95v-10.5c0-2.2.1-4.7,0.15-6.2a0.55,0.55,0,0,0-.5-0.3,35.475,35.475,0,0,1-5.4,2.1,0.761,0.761,0,0,0,0,1l0.5,0.3c1.5,0.9,1.55,1.2,1.55,4.15v22.6Zm26.255,0c0,3.6-.05,4.1-1.9,4.35l-1.05.15a0.875,0.875,0,0,0,.1,1.25c1.4-.1,2.9-0.15,4.7-0.15,1.75,0,3.2.05,4.7,0.15a0.875,0.875,0,0,0,.1-1.25l-1.05-.15c-1.8-.25-1.9-0.75-1.9-4.35v-9c0-2.05.1-4.45,0.2-6.2a0.462,0.462,0,0,0-.5-0.3,34.36,34.36,0,0,1-5.151,2.45,0.684,0.684,0,0,0-.05.9l0.45,0.3c1.35,0.9,1.35,1.15,1.35,3.1v8.751Zm1.651-25.6a2.6,2.6,0,0,0-2.7,2.7,2.6,2.6,0,0,0,5.2-.1A2.5,2.5,0,0,0,284.441,83.423Zm18.955,10.8c-8.3,0-12.1,5.75-12.1,11.15a9.955,9.955,0,0,0,2.9,7.4,9.694,9.694,0,0,0,6.851,2.55,9.11,9.11,0,0,0,8.35-5.1,0.789,0.789,0,0,0-.9-0.7,6.1,6.1,0,0,1-5.55,3c-5.35,0-8.05-4.65-8.05-8.551,0-5.3,3.4-8.05,6.9-8.05a6.82,6.82,0,0,1,5,2.65,0.873,0.873,0,0,0,.7.35c0.6,0,1.1-.95,1.1-1.85a2.834,2.834,0,0,0-.75-2A12.47,12.47,0,0,0,303.4,94.224Zm13.915-8.851c0-2.2.1-4.7,0.15-6.2a0.55,0.55,0,0,0-.5-0.3,35.475,35.475,0,0,1-5.4,2.1,0.761,0.761,0,0,0,0,1l0.5,0.3c1.5,0.9,1.55,1.2,1.55,4.15v22.6c0,3.6-.05,4.1-1.9,4.35l-1.15.15a0.875,0.875,0,0,0,.1,1.25c1.5-.1,3-0.15,4.8-0.15,1.75,0,3.2.05,4.85,0.15a0.875,0.875,0,0,0,.1-1.25l-1.2-.15c-1.8-.25-1.9-0.75-1.9-4.35V85.373Zm18.7,16.451c2.1,0,2.8-.05,2.95-0.35a3.09,3.09,0,0,0,.2-1.3c0-3-2.8-5.95-7.1-5.95-6,0-10.051,5.15-10.051,11.3a10.617,10.617,0,0,0,2.1,6.5,8.964,8.964,0,0,0,7.251,3.3,8.739,8.739,0,0,0,7.85-4.65,0.661,0.661,0,0,0-.9-0.6,5.389,5.389,0,0,1-4.6,2.45c-5.35,0-8.3-4.3-8.3-9.351,0-1.25.05-1.35,1.35-1.35h9.25Zm-9.7-1.5c-0.35,0-.35-0.15-0.35-0.25,0.05-1.65,2.6-4.35,5.55-4.35,2.9,0,3.85,1.75,3.85,3.15a1.006,1.006,0,0,1-.3.95c-0.4.3-1.5,0.5-5.2,0.5h-3.55Z"/>
      <path id="Golden_Swordsman" data-name="Golden Swordsman" class="cls-2" d="M454.334,536.78c0-.918.018-1.422,0.774-1.512l0.289-.036a0.314,0.314,0,0,0-.018-0.45c-0.6.036-1.207,0.054-1.909,0.054-1.062,0-2.053-.018-2.575-0.054a0.3,0.3,0,0,0,0,.45l0.792,0.09c1.117,0.126,1.171.234,1.171,1.746v0.72a2.007,2.007,0,0,1-.18,1.027,2.511,2.511,0,0,1-1.981.54c-3.619,0-5.4-2.719-5.4-6.176,0-2.7,1.53-5.185,5.023-5.185,1.837,0,3.187.612,3.691,2.556a0.359,0.359,0,0,0,.486-0.054,20.246,20.246,0,0,1-.27-2.611,4.7,4.7,0,0,1-1.116-.162,10.77,10.77,0,0,0-2.287-.27,7.458,7.458,0,0,0-5.708,2.107,6.179,6.179,0,0,0-1.62,4.267,5.667,5.667,0,0,0,1.656,4.087,7.5,7.5,0,0,0,5.492,2,14.079,14.079,0,0,0,3.223-.468,4.033,4.033,0,0,1,.882-0.162,0.148,0.148,0,0,0,.018-0.216,1.247,1.247,0,0,1-.432-1.279V536.78Zm6.273-4.5a3.783,3.783,0,0,0-3.835,3.889,3.559,3.559,0,0,0,3.691,3.709,3.677,3.677,0,0,0,3.8-3.871A3.6,3.6,0,0,0,460.607,532.279Zm2.107,4.015c0,1.386-.487,3.043-2.071,3.043s-2.323-1.765-2.323-3.4c0-1.981.882-3.115,2.071-3.115C462.1,532.819,462.714,534.764,462.714,536.294Zm4.779-7.2c0-.792.036-1.693,0.054-2.233a0.2,0.2,0,0,0-.18-0.108,12.772,12.772,0,0,1-1.944.756,0.274,0.274,0,0,0,0,.36l0.18,0.109c0.54,0.324.558,0.432,0.558,1.494v8.138c0,1.3-.018,1.477-0.684,1.567l-0.415.054a0.314,0.314,0,0,0,.037.45c0.54-.036,1.08-0.054,1.728-0.054,0.63,0,1.152.018,1.747,0.054a0.315,0.315,0,0,0,.036-0.45l-0.433-.054c-0.648-.09-0.684-0.27-0.684-1.567v-8.516Zm8.868,0c0-.792.036-1.693,0.054-2.233a0.2,0.2,0,0,0-.18-0.108,12.772,12.772,0,0,1-1.944.756,0.274,0.274,0,0,0,0,.36l0.18,0.109c0.54,0.324.558,0.432,0.558,1.494v2.719c0,0.144-.018.252-0.108,0.252a3.691,3.691,0,0,0-1.206-.162,4.087,4.087,0,0,0-4.358,4.141,3.308,3.308,0,0,0,3.331,3.457,3.749,3.749,0,0,0,2.269-.828h0.072a2,2,0,0,1,.036.558v0.306a0.171,0.171,0,0,0,.2.144,13.545,13.545,0,0,1,2.377-.576,0.439,0.439,0,0,0,.018-0.576,2.942,2.942,0,0,1-.774.18c-0.5,0-.523-0.666-0.523-2.089v-7.9Zm-1.332,8.75a1.094,1.094,0,0,1-.126.667,2.2,2.2,0,0,1-1.386.5c-1.765,0-2.683-1.549-2.683-3.187,0-1.567.846-2.989,2.485-2.989a1.878,1.878,0,0,1,1.512.756,1.054,1.054,0,0,1,.2.7v3.547Zm8.382-2.826a1.6,1.6,0,0,0,1.063-.126,1.115,1.115,0,0,0,.072-0.469,2.359,2.359,0,0,0-2.557-2.142,3.779,3.779,0,0,0-3.619,4.069,3.825,3.825,0,0,0,.756,2.341,3.228,3.228,0,0,0,2.611,1.188,3.147,3.147,0,0,0,2.827-1.674,0.238,0.238,0,0,0-.324-0.216,1.941,1.941,0,0,1-1.657.882c-1.926,0-2.989-1.549-2.989-3.367,0-.45.018-0.486,0.486-0.486h3.331Zm-3.493-.541c-0.126,0-.126-0.054-0.126-0.09a2.114,2.114,0,0,1,2-1.566,1.186,1.186,0,0,1,1.386,1.134,0.362,0.362,0,0,1-.108.342,4.229,4.229,0,0,1-1.872.18h-1.279Zm6.572,3.133c0,1.3-.018,1.477-0.684,1.567l-0.378.054a0.315,0.315,0,0,0,.036.45c0.5-.036,1.044-0.054,1.692-0.054,0.63,0,1.153.018,1.639,0.054a0.315,0.315,0,0,0,.036-0.45l-0.324-.054c-0.649-.108-0.685-0.27-0.685-1.567v-2.754a1.513,1.513,0,0,1,.271-1.081,1.963,1.963,0,0,1,1.53-.63,1.562,1.562,0,0,1,1.693,1.783v2.682c0,1.3-.018,1.459-0.685,1.567l-0.342.054a0.315,0.315,0,0,0,.036.45c0.486-.036,1.027-0.054,1.675-0.054,0.63,0,1.152.018,1.692,0.054a0.315,0.315,0,0,0,.036-0.45l-0.4-.054c-0.648-.09-0.684-0.27-0.684-1.567v-3.1a2,2,0,0,0-2.107-2.232,4.935,4.935,0,0,0-2.52.918,0.189,0.189,0,0,1-.2-0.2c0-.162,0-0.432.036-0.846a0.21,0.21,0,0,0-.2-0.126,9.808,9.808,0,0,1-1.8.882,0.246,0.246,0,0,0-.018.324L486,533.341a0.934,0.934,0,0,1,.486,1.116v3.151Zm20.054-1.026a4.055,4.055,0,0,0-2.251-3.457l-1.44-.9a2.834,2.834,0,0,1-1.531-2.215,1.886,1.886,0,0,1,2.143-2,2.359,2.359,0,0,1,2.449,2.034,0.357,0.357,0,0,0,.45-0.054,7.887,7.887,0,0,0-.324-2.2,2.419,2.419,0,0,1-.63-0.108,6.973,6.973,0,0,0-1.675-.234c-2.341,0-3.673,1.387-3.673,3.1a3.838,3.838,0,0,0,1.945,3.1l1.71,1.117a2.7,2.7,0,0,1,1.476,2.52,2.045,2.045,0,0,1-2.25,2.071,3.276,3.276,0,0,1-3.1-2.683,0.317,0.317,0,0,0-.432.054,8.32,8.32,0,0,0,.486,2.521,5.62,5.62,0,0,0,2.809.666C505.049,539.913,506.544,538.563,506.544,536.582Zm3.406,1.765c0.144,0.378.432,1.116,0.54,1.494a0.314,0.314,0,0,0,.216.072,0.287,0.287,0,0,0,.216-0.072c0.144-.414.4-1.062,0.72-1.836l0.937-2.251a8.489,8.489,0,0,1,.4-0.882,9.113,9.113,0,0,1,.414.918l0.864,2.07c0.306,0.721.63,1.657,0.738,1.981a0.271,0.271,0,0,0,.2.072,0.362,0.362,0,0,0,.234-0.072c0.145-.468.361-0.99,0.613-1.638,0.342-.919,1.206-3.079,1.692-4.088,0.378-.792.54-1.044,0.972-1.134l0.361-.072a0.3,0.3,0,0,0-.054-0.432c-0.4.036-.829,0.054-1.171,0.054-0.45,0-.9-0.018-1.422-0.054a0.28,0.28,0,0,0-.018.432l0.45,0.072a0.309,0.309,0,0,1,.324.234,2.577,2.577,0,0,1-.18.774c-0.27.757-.99,2.665-1.224,3.187a2.884,2.884,0,0,1-.252.5,1.836,1.836,0,0,1-.235-0.5c-0.2-.486-1.17-2.773-1.368-3.367-0.216-.63-0.252-0.684.468-0.828l0.378-.072a0.283,0.283,0,0,0-.054-0.432c-0.612.036-1.152,0.054-1.71,0.054-0.468,0-1.045-.018-1.5-0.054a0.281,0.281,0,0,0-.054.432l0.288,0.072a1.01,1.01,0,0,1,.829.63,1.345,1.345,0,0,1-.162,1.045l-0.883,2.178a4.046,4.046,0,0,1-.414.864c0-.036-0.162-0.36-0.324-0.774l-1.116-2.755a3.69,3.69,0,0,1-.288-0.936,0.388,0.388,0,0,1,.4-0.252l0.414-.072a0.282,0.282,0,0,0-.036-0.432q-0.729.054-1.567,0.054c-0.54,0-1.044-.018-1.6-0.054a0.3,0.3,0,0,0-.054.432l0.288,0.072c0.45,0.108.666,0.288,1.08,1.3Zm13.133-6.068a3.783,3.783,0,0,0-3.835,3.889,3.559,3.559,0,0,0,3.691,3.709,3.677,3.677,0,0,0,3.8-3.871A3.6,3.6,0,0,0,523.083,532.279Zm2.107,4.015c0,1.386-.486,3.043-2.071,3.043s-2.323-1.765-2.323-3.4c0-1.981.883-3.115,2.071-3.115C524.578,532.819,525.19,534.764,525.19,536.294Zm3.6,1.314c0,1.3-.018,1.459-0.685,1.567l-0.342.054a0.315,0.315,0,0,0,.036.45c0.469-.036,1.009-0.054,1.657-0.054,0.63,0,1.152.018,2,.054a0.313,0.313,0,0,0,.036-0.45l-0.648-.054c-0.684-.054-0.72-0.27-0.72-1.567V535.16a2.74,2.74,0,0,1,.234-1.387,0.8,0.8,0,0,1,.648-0.36,1.482,1.482,0,0,1,.793.288,0.691,0.691,0,0,0,.4.126,0.8,0.8,0,0,0,.774-0.828,0.746,0.746,0,0,0-.81-0.72,3.636,3.636,0,0,0-1.981,1.08,0.172,0.172,0,0,1-.054-0.162v-1.044a0.139,0.139,0,0,0-.144-0.126,13.89,13.89,0,0,1-1.819.882,0.246,0.246,0,0,0-.018.324l0.163,0.108a0.934,0.934,0,0,1,.486,1.116v3.151Zm11.6-8.516c0-.792.036-1.693,0.054-2.233a0.2,0.2,0,0,0-.18-0.108,12.772,12.772,0,0,1-1.944.756,0.274,0.274,0,0,0,0,.36l0.18,0.109c0.54,0.324.558,0.432,0.558,1.494v2.719c0,0.144-.018.252-0.108,0.252a3.694,3.694,0,0,0-1.207-.162,4.086,4.086,0,0,0-4.357,4.141,3.308,3.308,0,0,0,3.331,3.457,3.751,3.751,0,0,0,2.269-.828h0.072a2,2,0,0,1,.036.558v0.306a0.171,0.171,0,0,0,.2.144,13.523,13.523,0,0,1,2.377-.576,0.439,0.439,0,0,0,.018-0.576,2.948,2.948,0,0,1-.775.18c-0.5,0-.522-0.666-0.522-2.089v-7.9Zm-1.332,8.75a1.094,1.094,0,0,1-.126.667,2.2,2.2,0,0,1-1.387.5c-1.764,0-2.682-1.549-2.682-3.187,0-1.567.846-2.989,2.484-2.989a1.878,1.878,0,0,1,1.513.756,1.054,1.054,0,0,1,.2.7v3.547Zm6.432-5.563c-1.368,0-2.449.738-2.449,2.052,0,0.991.739,1.621,1.783,2.215a2.093,2.093,0,0,1,1.386,1.657A1.109,1.109,0,0,1,545,539.355a2.172,2.172,0,0,1-1.909-1.855,0.306,0.306,0,0,0-.414.018,5.355,5.355,0,0,0,.216,1.819,3,3,0,0,0,1.927.54c1.332,0,2.593-.684,2.593-2.053,0-1.278-.883-1.89-1.837-2.43-0.63-.36-1.386-0.756-1.386-1.5a1.064,1.064,0,0,1,1.152-1.1,1.758,1.758,0,0,1,1.585,1.314,0.313,0.313,0,0,0,.432-0.054,4.2,4.2,0,0,0-.288-1.458A3.19,3.19,0,0,0,545.489,532.279Zm13.614,5.329c0,1.3-.018,1.459-0.684,1.567l-0.324.054a0.315,0.315,0,0,0,.036.45c0.5-.036.99-0.054,1.638-0.054,0.63,0,1.153.018,1.747,0.054a0.315,0.315,0,0,0,.036-0.45l-0.432-.054c-0.648-.09-0.684-0.27-0.684-1.567v-3.1a2.036,2.036,0,0,0-2.143-2.232,4.513,4.513,0,0,0-2.449.918,0.566,0.566,0,0,1-.45.144,2.055,2.055,0,0,0-1.909-1.062,4.326,4.326,0,0,0-2.394.918,0.189,0.189,0,0,1-.2-0.2c0-.162,0-0.432.036-0.846a0.21,0.21,0,0,0-.2-0.126,9.817,9.817,0,0,1-1.8.882,0.246,0.246,0,0,0-.018.324l0.162,0.108a0.934,0.934,0,0,1,.486,1.116v3.151c0,1.3-.018,1.477-0.684,1.567l-0.432.054a0.315,0.315,0,0,0,.036.45c0.558-.036,1.1-0.054,1.746-0.054,0.631,0,1.153.018,1.639,0.054a0.315,0.315,0,0,0,.036-0.45l-0.324-.054c-0.648-.108-0.684-0.27-0.684-1.567v-2.79a1.4,1.4,0,0,1,.27-1.027,1.929,1.929,0,0,1,1.512-.648A1.565,1.565,0,0,1,554.332,535v2.61c0,1.3-.018,1.459-0.685,1.567l-0.324.054a0.315,0.315,0,0,0,.036.45c0.5-.036.991-0.054,1.639-0.054,0.63,0,1.152.018,1.692,0.054a0.315,0.315,0,0,0,.036-0.45l-0.378-.054c-0.648-.09-0.684-0.27-0.684-1.567v-2.754a1.4,1.4,0,0,1,.27-1.081,1.94,1.94,0,0,1,1.5-.63A1.562,1.562,0,0,1,559.1,535v2.61Zm5.023-.936c-1.152.414-1.494,0.828-1.494,1.531a1.684,1.684,0,0,0,.558,1.26,1.863,1.863,0,0,0,1.26.414,2.664,2.664,0,0,0,1.3-.45,2.78,2.78,0,0,1,.7-0.36,0.481,0.481,0,0,1,.288.252,1.436,1.436,0,0,0,1.17.558,1.891,1.891,0,0,0,1.513-.792,0.207,0.207,0,0,0-.126-0.234,0.761,0.761,0,0,0-.235.126,1.034,1.034,0,0,1-.45.108c-0.7,0-.864-0.738-0.828-1.567l0.108-3.133a1.745,1.745,0,0,0-1.872-2.106c-1.315,0-3.349,1.278-3.349,2.214a0.228,0.228,0,0,0,.252.253,1.93,1.93,0,0,0,1.026-.343,0.8,0.8,0,0,0,.18-0.612,1.046,1.046,0,0,1,1.152-.81,1.313,1.313,0,0,1,1.315,1.566l-0.018.829a0.437,0.437,0,0,1-.306.522Zm-0.108,1.315c0-.7.522-0.973,1.584-1.333a3.415,3.415,0,0,1,.739-0.18c0.108,0,.18.036,0.18,0.234l-0.036,1.062a1.135,1.135,0,0,1-.234.847,2.039,2.039,0,0,1-1.1.45A1.085,1.085,0,0,1,564.018,537.987Zm7.38-.379c0,1.3-.018,1.477-0.684,1.567l-0.378.054a0.315,0.315,0,0,0,.036.45c0.5-.036,1.044-0.054,1.692-0.054,0.63,0,1.152.018,1.639,0.054a0.315,0.315,0,0,0,.036-0.45l-0.325-.054c-0.648-.108-0.684-0.27-0.684-1.567v-2.754a1.518,1.518,0,0,1,.27-1.081,1.965,1.965,0,0,1,1.531-.63,1.561,1.561,0,0,1,1.692,1.783v2.682c0,1.3-.018,1.459-0.684,1.567l-0.342.054a0.315,0.315,0,0,0,.036.45c0.486-.036,1.026-0.054,1.675-0.054,0.63,0,1.152.018,1.692,0.054a0.315,0.315,0,0,0,.036-0.45l-0.4-.054c-0.648-.09-0.684-0.27-0.684-1.567v-3.1a2,2,0,0,0-2.107-2.232,4.942,4.942,0,0,0-2.521.918,0.189,0.189,0,0,1-.2-0.2c0-.162,0-0.432.036-0.846a0.21,0.21,0,0,0-.2-0.126,9.808,9.808,0,0,1-1.8.882,0.246,0.246,0,0,0-.018.324l0.162,0.108a0.934,0.934,0,0,1,.486,1.116v3.151Z"/>
      <path id="Dran" class="cls-2" d="M255.736,61.924c0,1.891-.036,2.107-1.08,2.251l-0.414.054a0.35,0.35,0,0,0,.036.45c0.846-.036,1.494-0.054,2.25-0.054,0.631,0,1.783.144,2.935,0.144A8.692,8.692,0,0,0,263.5,63.9a5.9,5.9,0,0,0,3.151-5.366,5.4,5.4,0,0,0-3.655-5.312,11.285,11.285,0,0,0-3.961-.54c-1.53,0-2.989.054-4.519,0.144a0.269,0.269,0,0,0-.018.45l0.4,0.054c0.756,0.108.846,0.486,0.846,1.747v6.842Zm1.477-7.058a2.4,2.4,0,0,1,.18-1.368,4,4,0,0,1,1.782-.252c4.718,0,5.672,3.349,5.672,5.33,0,3.349-1.567,5.636-5.06,5.636-1.134,0-1.818-.18-2.214-0.738a3.337,3.337,0,0,1-.36-1.963V54.866Zm11.78,7.742c0,1.3-.018,1.458-0.684,1.566l-0.342.054a0.315,0.315,0,0,0,.036.45c0.468-.036,1.008-0.054,1.656-0.054,0.63,0,1.152.018,2,.054a0.315,0.315,0,0,0,.036-0.45l-0.648-.054c-0.685-.054-0.721-0.27-0.721-1.566V60.16a2.739,2.739,0,0,1,.234-1.386,0.8,0.8,0,0,1,.649-0.36A1.476,1.476,0,0,1,272,58.7a0.691,0.691,0,0,0,.4.126A0.8,0.8,0,0,0,273.17,58a0.746,0.746,0,0,0-.81-0.72,3.643,3.643,0,0,0-1.981,1.08,0.172,0.172,0,0,1-.054-0.162V57.153a0.139,0.139,0,0,0-.144-0.126,13.932,13.932,0,0,1-1.818.882,0.246,0.246,0,0,0-.018.324l0.162,0.108a0.935,0.935,0,0,1,.486,1.116v3.151Zm6.368-.936c-1.152.414-1.494,0.828-1.494,1.53a1.685,1.685,0,0,0,.558,1.26,1.864,1.864,0,0,0,1.261.414,2.663,2.663,0,0,0,1.3-.45,2.765,2.765,0,0,1,.7-0.36,0.482,0.482,0,0,1,.288.252,1.437,1.437,0,0,0,1.171.558,1.888,1.888,0,0,0,1.512-.792,0.207,0.207,0,0,0-.126-0.234,0.758,0.758,0,0,0-.234.126,1.034,1.034,0,0,1-.45.108c-0.7,0-.864-0.738-0.828-1.566l0.108-3.133a1.746,1.746,0,0,0-1.873-2.107c-1.314,0-3.349,1.278-3.349,2.215a0.228,0.228,0,0,0,.252.252,1.936,1.936,0,0,0,1.026-.342,0.8,0.8,0,0,0,.18-0.612,1.047,1.047,0,0,1,1.153-.81,1.313,1.313,0,0,1,1.314,1.566l-0.018.828a0.437,0.437,0,0,1-.306.522Zm-0.108,1.314c0-.7.523-0.972,1.585-1.332a3.4,3.4,0,0,1,.738-0.18c0.108,0,.18.036,0.18,0.234L277.72,62.77a1.134,1.134,0,0,1-.234.846,2.035,2.035,0,0,1-1.1.45A1.085,1.085,0,0,1,275.253,62.987Zm7.38-.378c0,1.3-.018,1.476-0.684,1.566l-0.378.054a0.315,0.315,0,0,0,.036.45c0.5-.036,1.044-0.054,1.693-0.054,0.63,0,1.152.018,1.638,0.054a0.315,0.315,0,0,0,.036-0.45l-0.324-.054c-0.648-.108-0.684-0.27-0.684-1.566V59.854a1.517,1.517,0,0,1,.27-1.08,1.963,1.963,0,0,1,1.53-.63,1.561,1.561,0,0,1,1.693,1.783v2.683c0,1.3-.018,1.458-0.684,1.566l-0.343.054a0.315,0.315,0,0,0,.036.45c0.487-.036,1.027-0.054,1.675-0.054,0.63,0,1.152.018,1.692,0.054a0.313,0.313,0,0,0,.036-0.45l-0.4-.054c-0.648-.09-0.684-0.27-0.684-1.566v-3.1a2,2,0,0,0-2.106-2.233,4.934,4.934,0,0,0-2.521.918,0.189,0.189,0,0,1-.2-0.2c0-.162,0-0.432.036-0.846a0.21,0.21,0,0,0-.2-0.126,9.812,9.812,0,0,1-1.8.882,0.246,0.246,0,0,0-.018.324l0.162,0.108a0.935,0.935,0,0,1,.486,1.116v3.151Z"/>
      <path id="Dran-2" data-name="Dran" class="cls-2" d="M463.7,581.125c0,5.25-.1,5.85-3,6.25l-1.15.15a0.971,0.971,0,0,0,.1,1.25c2.35-.1,4.15-0.15,6.25-0.15,1.75,0,4.95.4,8.151,0.4a24.148,24.148,0,0,0,11.2-2.4,16.4,16.4,0,0,0,8.751-14.9c0-6.6-3.4-12.3-10.151-14.751a31.348,31.348,0,0,0-11-1.5c-4.251,0-8.3.15-12.551,0.4a0.748,0.748,0,0,0-.05,1.25l1.1,0.15c2.1,0.3,2.35,1.35,2.35,4.85v19Zm4.1-19.6c0-2.25.1-3.5,0.5-3.8s2-.7,4.951-0.7c13.1,0,15.751,9.3,15.751,14.8,0,9.3-4.351,15.651-14.051,15.651-3.151,0-5.051-.5-6.151-2.05-0.85-1.2-1-2.8-1-5.451V561.523Zm32.23,21.5c0,3.6-.05,4.05-1.9,4.35l-0.95.15a0.875,0.875,0,0,0,.1,1.25c1.3-.1,2.8-0.15,4.6-0.15,1.75,0,3.2.05,5.55,0.15a0.875,0.875,0,0,0,.1-1.25l-1.8-.15c-1.9-.15-2-0.75-2-4.35v-6.8a7.6,7.6,0,0,1,.65-3.85,2.219,2.219,0,0,1,1.8-1,4.1,4.1,0,0,1,2.2.8,1.921,1.921,0,0,0,1.1.35,2.218,2.218,0,0,0,2.151-2.3,2.072,2.072,0,0,0-2.251-2c-1.85,0-3.75,1.55-5.5,3a0.478,0.478,0,0,1-.15-0.45v-2.9a0.387,0.387,0,0,0-.4-0.35,38.726,38.726,0,0,1-5.05,2.45,0.684,0.684,0,0,0-.05.9l0.45,0.3c1.35,0.9,1.35,1.15,1.35,3.1v8.751Zm17.26-2.6c-3.2,1.151-4.15,2.3-4.15,4.251a4.678,4.678,0,0,0,1.55,3.5,5.175,5.175,0,0,0,3.5,1.15,7.4,7.4,0,0,0,3.6-1.25,7.677,7.677,0,0,1,1.95-1,1.337,1.337,0,0,1,.8.7,3.992,3.992,0,0,0,3.251,1.55,5.246,5.246,0,0,0,4.2-2.2,0.576,0.576,0,0,0-.35-0.65,2.106,2.106,0,0,0-.65.35,2.873,2.873,0,0,1-1.25.3c-1.95,0-2.4-2.05-2.3-4.35l0.3-8.7c0.15-3.75-1.6-5.85-5.2-5.85-3.65,0-9.3,3.55-9.3,6.15a0.633,0.633,0,0,0,.7.7,5.38,5.38,0,0,0,2.85-.95,2.232,2.232,0,0,0,.5-1.7c0.1-1.55,1.8-2.25,3.2-2.25,3.1,0,3.7,2.5,3.65,4.35l-0.05,2.3a1.215,1.215,0,0,1-.85,1.45Zm-0.3,3.651c0-1.95,1.45-2.7,4.4-3.7a9.436,9.436,0,0,1,2.05-.5c0.3,0,.5.1,0.5,0.651l-0.1,2.95a3.148,3.148,0,0,1-.65,2.35,5.654,5.654,0,0,1-3.05,1.25A3.014,3.014,0,0,1,516.988,584.075Zm20.115-1.05c0,3.6-.05,4.1-1.9,4.35l-1.05.15a0.875,0.875,0,0,0,.1,1.25c1.4-.1,2.9-0.15,4.7-0.15,1.75,0,3.2.05,4.55,0.15a0.875,0.875,0,0,0,.1-1.25l-0.9-.15c-1.8-.3-1.9-0.75-1.9-4.35v-7.651a4.212,4.212,0,0,1,.75-3,5.452,5.452,0,0,1,4.25-1.75c3.4,0,4.7,2.1,4.7,4.95v7.451c0,3.6-.05,4.05-1.9,4.35l-0.95.15a0.875,0.875,0,0,0,.1,1.25c1.35-.1,2.85-0.15,4.65-0.15,1.75,0,3.2.05,4.7,0.15a0.875,0.875,0,0,0,.1-1.25l-1.1-.15c-1.8-.25-1.9-0.75-1.9-4.35v-8.6c0-3.35-1.7-6.2-5.85-6.2-2.551,0-4.9,1.25-7,2.55a0.525,0.525,0,0,1-.55-0.55c0-.45,0-1.2.1-2.35a0.584,0.584,0,0,0-.55-0.35,27.245,27.245,0,0,1-5,2.45,0.684,0.684,0,0,0-.05.9l0.45,0.3c1.35,0.9,1.35,1.15,1.35,3.1v8.751Z"/>
      <path id="Transform_のコピー" data-name="Transform のコピー" class="cls-2" d="M450.8,246.208c0-1.188-.036-1.224,1.044-1.224H454.4a7.175,7.175,0,0,1,4.175.9c0.54,0.4.792,1.728,0.9,2.627a0.676,0.676,0,0,0,.936-0.072,21.787,21.787,0,0,1,.54-5.471,0.663,0.663,0,0,0-.648-0.108c-0.54.936-.864,1.008-2.808,1.008H442.916c-1.655,0-2.843.036-3.059-1.116a0.9,0.9,0,0,0-.684,0,37.866,37.866,0,0,1-1.368,5.363,0.7,0.7,0,0,0,.936.252,6.578,6.578,0,0,1,1.62-2.483c0.9-.828,2.879-0.9,4.427-0.9h1.98c1.08,0,1.08.036,1.08,1.152v16.09c0,3.779-.18,4.319-2.232,4.5l-1.3.108a0.629,0.629,0,0,0,0,.9c2.3-.072,3.564-0.108,5-0.108s2.663,0.036,4.715.108a0.708,0.708,0,0,0,.072-0.9l-1.152-.108c-2.088-.18-2.16-0.72-2.16-4.5V246.208Zm10.92,17.386c0,2.591-.036,2.915-1.367,3.131l-0.684.108a0.63,0.63,0,0,0,.072.9c0.935-.072,2.015-0.108,3.311-0.108,1.26,0,2.3.036,4,.108a0.63,0.63,0,0,0,.072-0.9l-1.3-.108c-1.368-.108-1.44-0.54-1.44-3.131v-4.9a5.475,5.475,0,0,1,.468-2.772,1.6,1.6,0,0,1,1.3-.719,2.958,2.958,0,0,1,1.584.575,1.382,1.382,0,0,0,.791.252,1.6,1.6,0,0,0,1.548-1.655,1.491,1.491,0,0,0-1.62-1.44c-1.331,0-2.7,1.116-3.959,2.16a0.344,0.344,0,0,1-.108-0.324v-2.088a0.279,0.279,0,0,0-.288-0.252,27.883,27.883,0,0,1-3.636,1.764,0.5,0.5,0,0,0-.036.648l0.324,0.216c0.972,0.647.972,0.827,0.972,2.231v6.3Zm12.561-1.872c-2.3.828-2.988,1.656-2.988,3.059a3.368,3.368,0,0,0,1.116,2.52,3.726,3.726,0,0,0,2.52.828,5.328,5.328,0,0,0,2.591-.9,5.527,5.527,0,0,1,1.4-.72,0.963,0.963,0,0,1,.576.5,2.873,2.873,0,0,0,2.34,1.116,3.776,3.776,0,0,0,3.023-1.584,0.415,0.415,0,0,0-.252-0.468,1.517,1.517,0,0,0-.468.252,2.067,2.067,0,0,1-.9.216c-1.4,0-1.728-1.476-1.656-3.131l0.216-6.264c0.108-2.7-1.152-4.211-3.744-4.211-2.628,0-6.7,2.556-6.7,4.427a0.455,0.455,0,0,0,.5.5,3.874,3.874,0,0,0,2.052-.684,1.607,1.607,0,0,0,.36-1.224c0.072-1.115,1.3-1.619,2.3-1.619,2.232,0,2.664,1.8,2.628,3.131l-0.036,1.656a0.875,0.875,0,0,1-.612,1.044Zm-0.216,2.627c0-1.4,1.044-1.943,3.167-2.663a6.794,6.794,0,0,1,1.476-.36c0.216,0,.36.072,0.36,0.468L479,263.917a2.267,2.267,0,0,1-.468,1.692,4.071,4.071,0,0,1-2.2.9A2.17,2.17,0,0,1,474.064,264.349Zm14.6-.755c0,2.591-.036,2.951-1.368,3.131l-0.756.108a0.63,0.63,0,0,0,.072.9c1.008-.072,2.088-0.108,3.384-0.108,1.26,0,2.3.036,3.275,0.108a0.63,0.63,0,0,0,.072-0.9l-0.648-.108c-1.3-.216-1.367-0.54-1.367-3.131v-5.508a3.033,3.033,0,0,1,.54-2.16,3.925,3.925,0,0,1,3.059-1.259c2.448,0,3.384,1.511,3.384,3.563v5.364c0,2.591-.036,2.915-1.368,3.131l-0.684.108a0.63,0.63,0,0,0,.072.9c0.972-.072,2.052-0.108,3.348-0.108,1.259,0,2.3.036,3.383,0.108a0.63,0.63,0,0,0,.072-0.9l-0.792-.108c-1.3-.18-1.368-0.54-1.368-3.131V257.4c0-2.411-1.223-4.463-4.211-4.463a9.863,9.863,0,0,0-5.039,1.836,0.378,0.378,0,0,1-.4-0.4c0-.324,0-0.864.072-1.692a0.42,0.42,0,0,0-.4-0.252,19.616,19.616,0,0,1-3.6,1.764,0.492,0.492,0,0,0-.036.648l0.324,0.216c0.972,0.647.972,0.827,0.972,2.231v6.3Zm22.05-10.655c-2.736,0-4.9,1.476-4.9,4.1,0,1.98,1.476,3.24,3.564,4.428,1.332,0.756,2.771,1.656,2.771,3.311a2.217,2.217,0,0,1-2.411,2.3c-2.052,0-3.2-1.728-3.816-3.707a0.611,0.611,0,0,0-.828.036,10.7,10.7,0,0,0,.432,3.635,5.988,5.988,0,0,0,3.852,1.08c2.663,0,5.183-1.368,5.183-4.1,0-2.555-1.764-3.779-3.671-4.859-1.26-.72-2.772-1.512-2.772-2.988a2.127,2.127,0,0,1,2.3-2.195c1.475,0,2.555,1.044,3.167,2.627a0.627,0.627,0,0,0,.864-0.108,8.407,8.407,0,0,0-.576-2.915A6.368,6.368,0,0,0,510.719,252.939Zm15.2,2.016a1.111,1.111,0,0,0,.252-1.512h-4.1c-0.612,0-.612-0.036-0.612-1.008v-1.044a19.1,19.1,0,0,1,.792-6.083,2.775,2.775,0,0,1,2.555-1.98,4.019,4.019,0,0,1,2.88,1.584,1.026,1.026,0,0,0,.864.432,1.378,1.378,0,0,0,1.368-1.3c0-1.3-1.62-2.16-3.528-2.16a7.08,7.08,0,0,0-6.479,4.572,16.132,16.132,0,0,0-1.116,6.335,0.818,0.818,0,0,1-.54.72l-1.548.756a0.5,0.5,0,0,0,.108.684h1.26c0.72,0,.72.072,0.72,1.043v7.6c0,2.591-.036,2.951-1.368,3.131l-0.828.108a0.63,0.63,0,0,0,.072.9c1.08-.072,2.16-0.108,3.456-0.108,1.26,0,2.3.036,3.923,0.108a0.63,0.63,0,0,0,.072-0.9l-1.295-.108c-1.3-.108-1.368-0.54-1.368-3.131V256c0-.971,0-1.043.612-1.043h3.851Zm8.388-2.016a7.564,7.564,0,0,0-7.667,7.775,7.116,7.116,0,0,0,7.379,7.415,7.353,7.353,0,0,0,7.6-7.739A7.191,7.191,0,0,0,534.3,252.939Zm4.212,8.027c0,2.771-.972,6.083-4.14,6.083s-4.643-3.527-4.643-6.8c0-3.96,1.764-6.227,4.14-6.227C537.293,254.019,538.517,257.906,538.517,260.966Zm7.018,2.628c0,2.591-.036,2.915-1.368,3.131l-0.684.108a0.63,0.63,0,0,0,.072.9c0.936-.072,2.016-0.108,3.311-0.108,1.26,0,2.3.036,4,.108a0.63,0.63,0,0,0,.072-0.9l-1.3-.108c-1.368-.108-1.44-0.54-1.44-3.131v-4.9a5.475,5.475,0,0,1,.468-2.772,1.6,1.6,0,0,1,1.3-.719,2.958,2.958,0,0,1,1.584.575,1.383,1.383,0,0,0,.792.252,1.6,1.6,0,0,0,1.547-1.655,1.49,1.49,0,0,0-1.619-1.44c-1.332,0-2.7,1.116-3.96,2.16a0.344,0.344,0,0,1-.108-0.324v-2.088a0.279,0.279,0,0,0-.288-0.252,27.873,27.873,0,0,1-3.635,1.764,0.492,0.492,0,0,0-.036.648l0.324,0.216c0.972,0.647.972,0.827,0.972,2.231v6.3Zm30.936,0c0,2.591-.036,2.915-1.368,3.131l-0.648.108a0.63,0.63,0,0,0,.072.9c1.008-.072,1.98-0.108,3.275-0.108,1.26,0,2.3.036,3.492,0.108a0.63,0.63,0,0,0,.072-0.9l-0.864-.108c-1.3-.18-1.368-0.54-1.368-3.131V257.4c0-2.483-1.4-4.463-4.283-4.463a9.02,9.02,0,0,0-4.9,1.836,1.132,1.132,0,0,1-.9.288,4.107,4.107,0,0,0-3.815-2.124,8.645,8.645,0,0,0-4.787,1.836,0.378,0.378,0,0,1-.4-0.4c0-.324,0-0.864.072-1.692a0.42,0.42,0,0,0-.4-0.252,19.616,19.616,0,0,1-3.6,1.764,0.492,0.492,0,0,0-.036.648l0.324,0.216c0.972,0.647.972,0.827,0.972,2.231v6.3c0,2.591-.036,2.951-1.368,3.131l-0.864.108a0.63,0.63,0,0,0,.072.9c1.116-.072,2.2-0.108,3.492-0.108,1.26,0,2.3.036,3.275,0.108a0.63,0.63,0,0,0,.072-0.9l-0.648-.108c-1.295-.216-1.367-0.54-1.367-3.131v-5.58a2.8,2.8,0,0,1,.54-2.052,3.857,3.857,0,0,1,3.023-1.295c2.232,0,3.312,1.295,3.312,3.707v5.22c0,2.591-.036,2.915-1.368,3.131l-0.648.108a0.63,0.63,0,0,0,.072.9c1.008-.072,1.98-0.108,3.276-0.108,1.259,0,2.3.036,3.383,0.108a0.63,0.63,0,0,0,.072-0.9l-0.756-.108c-1.3-.18-1.368-0.54-1.368-3.131v-5.508a2.792,2.792,0,0,1,.54-2.16,3.882,3.882,0,0,1,2.988-1.259c2.268,0,3.348,1.259,3.348,3.707v5.22Z"/>
    </g>
    <path id="多角形_1" data-name="多角形 1" class="cls-3" d="M578,176.862L616,244,548,353.138H472L404,244l38-67.138H578Z"/>
    <g id="グループ_2" data-name="グループ 2">
      <path id="三角形_1" data-name="三角形 1" class="cls-4" d="M510.5,511.087L488.02,471.9h44.969Z"/>
      <path id="線_2" data-name="線 2" class="cls-5" d="M511,471h-1V370h1V471Z"/>
      <path id="線_1" data-name="線 1" class="cls-5" d="M470,369v-1h80v1H470Z"/>
    </g>
    <g id="グループ_2_のコピー" data-name="グループ 2 のコピー">
      <path id="三角形_1-2" data-name="三角形 1" class="cls-4" d="M384.984,162.969l22.485,39.187H362.5Z"/>
      <path id="線_2-2" data-name="線 2" class="cls-5" d="M286.493,132.088l0.5-.866,87.468,50.5-0.5.866Z"/>
      <path id="線_1-2" data-name="線 1" class="cls-5" d="M428.827,168.179l0.866,0.5-40,69.282-0.866-.5Z"/>
    </g>
  </g>
</svg>
